<?xml version="1.0" encoding="UTF-8" standalone="no"?>
<!-- Created with Inkscape (http://www.inkscape.org/) -->

<svg
   version="1.1"
   id="svg2"
   xml:space="preserve"
   width="265.84"
   height="342.54666"
   viewBox="0 0 265.84 342.54666"
   sodipodi:docname="LSL POS Portrait RGB.eps"
   xmlns:inkscape="http://www.inkscape.org/namespaces/inkscape"
   xmlns:sodipodi="http://sodipodi.sourceforge.net/DTD/sodipodi-0.dtd"
   xmlns="http://www.w3.org/2000/svg"
   xmlns:svg="http://www.w3.org/2000/svg"><defs
     id="defs6"><clipPath
       clipPathUnits="userSpaceOnUse"
       id="clipPath18"><path
         d="m 674.34,1184.36 v 320.37 l 277.457,-160.2 z m -46.238,800.92 -277.457,160.19 277.457,160.18 z m 0,-400.47 -277.457,160.19 277.457,160.19 z m 0,-400.45 -277.457,160.17 277.457,160.2 z M 327.523,1704.95 604.98,1544.77 327.523,1384.58 Z m 0,400.47 277.457,-160.19 -277.457,-160.18 v 200.23 z m 686.987,-746.55 -340.17,198.36 c 0,0 0,782.25 0,790.55 0,12.88 -12.012,18.13 -12.227,18.24 -0.445,0.25 -0.883,0.48 -1.351,0.69 -0.473,0.22 -0.953,0.39 -1.442,0.58 -0.492,0.18 -0.976,0.36 -1.472,0.51 -0.45,0.14 -0.887,0.25 -1.336,0.35 -0.489,0.12 -0.977,0.2 -1.473,0.29 -0.539,0.08 -1.066,0.19 -1.601,0.23 -0.5,0.05 -0.997,0.06 -1.508,0.08 -0.242,0 -0.469,0.07 -0.711,0.07 -0.239,0 -0.469,-0.07 -0.715,-0.07 -0.504,-0.02 -0.992,-0.03 -1.492,-0.08 -0.551,-0.04 -1.078,-0.14 -1.621,-0.23 -0.5,-0.09 -0.989,-0.17 -1.469,-0.29 -0.445,-0.1 -0.883,-0.21 -1.317,-0.35 -0.503,-0.15 -0.996,-0.34 -1.5,-0.51 -0.484,-0.19 -0.96,-0.36 -1.429,-0.58 -0.465,-0.21 -0.91,-0.44 -1.348,-0.69 -0.223,-0.11 -0.449,-0.16 -0.672,-0.29 L 292.84,2165.49 c -0.223,-0.13 -0.395,-0.3 -0.61,-0.44 -0.41,-0.25 -0.824,-0.51 -1.214,-0.79 -0.446,-0.31 -0.864,-0.66 -1.282,-1.01 -0.402,-0.32 -0.793,-0.66 -1.16,-1.01 -0.332,-0.3 -0.64,-0.61 -0.941,-0.93 -0.363,-0.39 -0.699,-0.79 -1.035,-1.2 -0.34,-0.41 -0.676,-0.81 -0.985,-1.24 -0.277,-0.4 -0.535,-0.81 -0.793,-1.23 -0.136,-0.21 -0.32,-0.39 -0.441,-0.61 -0.125,-0.23 -0.191,-0.47 -0.313,-0.69 -0.23,-0.43 -0.453,-0.86 -0.66,-1.3 -0.222,-0.49 -0.402,-0.98 -0.593,-1.49 -0.188,-0.48 -0.364,-0.97 -0.512,-1.48 -0.125,-0.42 -0.235,-0.84 -0.344,-1.27 -0.117,-0.51 -0.211,-1.02 -0.297,-1.55 -0.09,-0.52 -0.176,-1.05 -0.23,-1.57 -0.043,-0.49 -0.063,-0.97 -0.078,-1.45 -0.004,-0.27 -0.075,-0.51 -0.075,-0.76 V 1985.28 1745 1344.54 h 0.008 c 0,0 -0.008,0 -0.008,-0.01 0,-8.26 4.411,-15.89 11.563,-20.02 l 346.816,-200.23 c 0.02,-0.01 0.035,-0.03 0.055,-0.03 0.664,-0.37 1.352,-0.7 2.051,-1.02 0.019,0 0.039,-0.01 0.058,-0.02 0.172,-0.08 0.328,-0.17 0.512,-0.25 0.051,-0.02 0.109,-0.04 0.164,-0.07 0.297,-0.13 0.606,-0.19 0.906,-0.3 0.911,-0.33 1.828,-0.61 2.758,-0.81 0.289,-0.07 0.594,-0.13 0.879,-0.18 1.387,-0.26 2.774,-0.43 4.152,-0.43 0.016,0 0.024,0.01 0.028,0.01 0.008,0 0.015,-0.01 0.027,-0.01 1.379,0 2.766,0.17 4.149,0.43 0.293,0.05 0.589,0.11 0.882,0.18 1.024,0.22 2.032,0.52 3.02,0.9 0.219,0.07 0.433,0.12 0.648,0.21 0.051,0.02 0.11,0.05 0.16,0.07 0.184,0.08 0.344,0.17 0.516,0.25 0.063,0.03 0.125,0.07 0.188,0.1 0.64,0.29 1.296,0.58 1.914,0.94 0.015,0 0.039,0.02 0.058,0.03 L 1009.4,1324.4 c 0.02,0.01 0.05,0.02 0.07,0.04 l 0.13,0.07 c 0.06,0.04 0.09,0.07 0.15,0.11 0.25,0.14 0.48,0.32 0.73,0.48 0.27,0.17 0.54,0.33 0.8,0.52 0.58,0.41 1.14,0.85 1.7,1.32 0.22,0.2 0.47,0.4 0.69,0.61 0.23,0.2 0.47,0.38 0.68,0.59 0.06,0.07 0.11,0.15 0.17,0.21 0.67,0.66 1.29,1.37 1.86,2.13 0.15,0.18 0.26,0.38 0.39,0.56 0.03,0.05 0.05,0.1 0.08,0.13 0.22,0.31 0.43,0.64 0.64,0.96 0.2,0.29 0.4,0.54 0.57,0.84 0.13,0.23 0.19,0.47 0.31,0.69 0.23,0.43 0.46,0.86 0.66,1.31 0.22,0.48 0.41,0.97 0.59,1.48 0.19,0.48 0.36,0.98 0.52,1.47 0.12,0.43 0.24,0.85 0.34,1.28 0.12,0.51 0.21,1.02 0.3,1.55 0.09,0.52 0.17,1.05 0.23,1.57 0.04,0.49 0.06,0.98 0.07,1.46 0.01,0.25 0,11.27 -6.57,15.09 z"
         id="path16" /></clipPath><linearGradient
       x1="0"
       y1="0"
       x2="1"
       y2="0"
       gradientUnits="userSpaceOnUse"
       gradientTransform="matrix(739.801,0,0,-739.801,281.28,1745)"
       spreadMethod="pad"
       id="linearGradient24"><stop
         style="stop-opacity:1;stop-color:#276d6f"
         offset="0"
         id="stop20" /><stop
         style="stop-opacity:1;stop-color:#5ba49b"
         offset="1"
         id="stop22" /></linearGradient><clipPath
       clipPathUnits="userSpaceOnUse"
       id="clipPath34"><path
         d="m 1044.21,1344.54 277.45,160.19 v -320.36 z m 323.69,961.12 277.45,-160.19 -277.45,-160.18 z m 0,-400.47 277.45,-160.18 -277.45,-160.2 z m 0,-400.46 277.45,-160.19 -277.45,-160.17 z m 300.58,-120.15 -277.46,160.2 277.46,160.18 z m 0,600.71 v -200.23 l -277.46,160.19 277.46,160.18 z M 974.922,1343.78 c 0.008,-0.48 0.023,-0.96 0.074,-1.46 0.051,-0.51 0.137,-1.04 0.227,-1.57 0.086,-0.52 0.175,-1.03 0.304,-1.54 0.098,-0.44 0.211,-0.85 0.332,-1.28 0.157,-0.49 0.329,-0.99 0.516,-1.47 0.188,-0.51 0.371,-1 0.598,-1.49 0.199,-0.44 0.429,-0.87 0.664,-1.3 0.113,-0.23 0.176,-0.47 0.308,-0.69 0.168,-0.3 0.371,-0.55 0.567,-0.85 0.203,-0.32 0.414,-0.64 0.636,-0.95 0.032,-0.04 0.055,-0.09 0.086,-0.13 0.129,-0.18 0.239,-0.38 0.383,-0.57 0.574,-0.75 1.199,-1.46 1.863,-2.12 0.063,-0.06 0.11,-0.14 0.168,-0.21 0.215,-0.21 0.45,-0.39 0.68,-0.6 0.227,-0.2 0.469,-0.4 0.699,-0.61 0.551,-0.46 1.11,-0.9 1.688,-1.31 0.269,-0.19 0.535,-0.36 0.801,-0.52 0.25,-0.16 0.484,-0.35 0.738,-0.48 0.055,-0.04 0.09,-0.08 0.148,-0.11 l 0.125,-0.07 c 0.032,-0.03 0.051,-0.04 0.078,-0.05 l 346.605,-200.11 c 0.03,-0.02 0.05,-0.03 0.07,-0.03 0.62,-0.36 1.27,-0.66 1.91,-0.95 0.06,-0.02 0.12,-0.06 0.19,-0.1 0.17,-0.07 0.33,-0.16 0.52,-0.24 0.05,-0.03 0.11,-0.05 0.15,-0.08 0.22,-0.08 0.43,-0.13 0.66,-0.2 0.98,-0.39 1.99,-0.68 3.02,-0.9 0.28,-0.07 0.58,-0.13 0.88,-0.19 1.38,-0.25 2.77,-0.42 4.15,-0.42 0.01,0 0.01,0.01 0.02,0.01 0,0 0.01,-0.01 0.02,-0.01 1.39,0 2.78,0.17 4.16,0.42 0.29,0.06 0.59,0.12 0.88,0.19 0.93,0.2 1.85,0.48 2.76,0.81 0.3,0.1 0.61,0.17 0.91,0.29 0.05,0.03 0.1,0.05 0.15,0.08 0.19,0.08 0.35,0.17 0.52,0.24 0.02,0.02 0.04,0.03 0.06,0.03 0.69,0.31 1.38,0.65 2.05,1.02 0.02,0 0.04,0.01 0.06,0.03 l 346.81,200.23 c 7.15,4.13 11.56,11.76 11.56,20.02 v 0.01 0 400.46 240.28 160.18 c 0,0.26 -0.06,0.5 -0.07,0.76 -0.01,0.49 -0.03,0.97 -0.08,1.46 -0.05,0.52 -0.14,1.04 -0.22,1.57 -0.09,0.53 -0.19,1.04 -0.31,1.54 -0.1,0.43 -0.21,0.86 -0.34,1.28 -0.15,0.5 -0.32,0.99 -0.52,1.47 -0.18,0.51 -0.36,1.01 -0.58,1.5 -0.21,0.44 -0.43,0.86 -0.67,1.3 -0.11,0.22 -0.18,0.46 -0.31,0.69 -0.13,0.22 -0.3,0.39 -0.44,0.61 -0.25,0.42 -0.52,0.82 -0.79,1.23 -0.31,0.42 -0.64,0.83 -0.99,1.24 -0.34,0.41 -0.67,0.81 -1.03,1.2 -0.3,0.32 -0.61,0.63 -0.94,0.93 -0.37,0.35 -0.76,0.68 -1.16,1.01 -0.42,0.35 -0.84,0.7 -1.29,1.01 -0.39,0.28 -0.8,0.53 -1.21,0.78 -0.22,0.14 -0.39,0.32 -0.61,0.45 l -346.81,200.23 c -0.23,0.13 -0.45,0.18 -0.68,0.31 -0.44,0.23 -0.88,0.47 -1.34,0.67 -0.47,0.22 -0.95,0.4 -1.44,0.58 -0.5,0.19 -0.99,0.37 -1.49,0.52 -0.44,0.14 -0.87,0.25 -1.32,0.35 -0.48,0.12 -0.97,0.2 -1.47,0.28 -0.54,0.1 -1.07,0.19 -1.62,0.24 -0.5,0.05 -0.99,0.06 -1.49,0.07 -0.25,0.02 -0.48,0.08 -0.72,0.08 -0.24,0 -0.46,-0.06 -0.71,-0.08 -0.51,-0.01 -1,-0.02 -1.5,-0.07 -0.54,-0.05 -1.07,-0.14 -1.61,-0.23 -0.49,-0.09 -0.98,-0.17 -1.47,-0.29 -0.46,-0.1 -0.89,-0.21 -1.34,-0.35 -0.49,-0.15 -0.98,-0.33 -1.47,-0.51 -0.49,-0.19 -0.97,-0.37 -1.44,-0.59 -0.47,-0.2 -0.9,-0.44 -1.35,-0.67 -0.22,-0.13 -12.23,-5.37 -12.23,-18.25 0,-8.3 0,-794.92 0,-794.92 L 981.5,1358.88 c -6.578,-3.82 -6.582,-14.84 -6.578,-15.1 z"
         id="path32" /></clipPath><linearGradient
       x1="0"
       y1="0"
       x2="1"
       y2="0"
       gradientUnits="userSpaceOnUse"
       gradientTransform="matrix(-739.801,0,0,739.801,1714.72,1745.01)"
       spreadMethod="pad"
       id="linearGradient40"><stop
         style="stop-opacity:1;stop-color:#94dacd"
         offset="0"
         id="stop36" /><stop
         style="stop-opacity:1;stop-color:#456863"
         offset="1"
         id="stop38" /></linearGradient><clipPath
       clipPathUnits="userSpaceOnUse"
       id="clipPath50"><path
         d="M 0,0 H 1994 V 2569 H 0 Z"
         id="path48" /></clipPath><clipPath
       clipPathUnits="userSpaceOnUse"
       id="clipPath56"><path
         d="m 974.922,1704.96 v -320.37 l -277.457,160.18 z m 46.238,480.56 v 320.37 l 277.45,-160.18 z m 277.45,-640.75 -277.45,-160.18 v 320.37 z m -323.688,560.66 v -320.38 l -277.457,160.19 z m -23.125,40.04 -277.453,-160.18 v 320.37 z m -254.332,200.24 277.457,160.18 v -320.37 z m 624.275,-440.52 v -320.37 l -277.46,160.19 z m -300.58,-120.14 v 320.38 l 277.45,-160.19 z m 346.66,162.4 c -0.05,0.52 -0.13,1.05 -0.22,1.58 -0.08,0.52 -0.18,1.03 -0.31,1.54 -0.09,0.43 -0.2,0.86 -0.33,1.28 -0.15,0.49 -0.33,0.99 -0.52,1.47 -0.18,0.51 -0.37,1 -0.59,1.49 -0.21,0.44 -0.43,0.87 -0.66,1.3 -0.12,0.22 -0.18,0.46 -0.32,0.69 -0.11,0.22 -0.3,0.4 -0.44,0.62 -0.25,0.41 -0.5,0.82 -0.79,1.22 -0.3,0.43 -0.64,0.83 -0.98,1.25 -0.34,0.41 -0.68,0.8 -1.03,1.19 -0.3,0.32 -0.61,0.63 -0.94,0.93 -0.37,0.36 -0.76,0.69 -1.17,1.02 -0.43,0.35 -0.83,0.68 -1.28,1.01 -0.4,0.28 -0.8,0.53 -1.21,0.78 -0.21,0.14 -0.39,0.32 -0.61,0.45 l -312.14,180.2 312.14,180.21 c 7.15,4.13 11.56,11.77 11.56,20.03 0,8.25 -4.41,15.89 -11.56,20.02 l -346.82,200.24 c -0.22,0.12 -0.46,0.17 -0.66,0.3 -0.45,0.23 -0.89,0.47 -1.36,0.68 -0.47,0.21 -0.95,0.39 -1.44,0.57 -0.49,0.19 -0.97,0.37 -1.47,0.52 -0.45,0.14 -0.89,0.25 -1.34,0.35 -0.49,0.12 -0.97,0.2 -1.47,0.29 -0.54,0.09 -1.06,0.18 -1.6,0.23 -0.498,0.05 -1.002,0.07 -1.51,0.07 -0.246,0.02 -0.469,0.08 -0.707,0.08 -0.242,0 -0.469,-0.06 -0.719,-0.08 -0.504,0 -0.996,-0.02 -1.488,-0.07 -0.555,-0.05 -1.086,-0.14 -1.621,-0.24 -0.504,-0.08 -0.992,-0.16 -1.473,-0.28 -0.441,-0.1 -0.883,-0.21 -1.316,-0.35 -0.504,-0.15 -0.996,-0.33 -1.5,-0.52 -0.485,-0.18 -0.961,-0.36 -1.43,-0.57 -0.465,-0.21 -0.91,-0.45 -1.351,-0.68 -0.215,-0.13 -0.446,-0.18 -0.665,-0.3 L 639.664,2365.73 c -0.226,-0.13 -0.402,-0.31 -0.613,-0.45 -0.41,-0.24 -0.824,-0.51 -1.215,-0.78 -0.445,-0.32 -0.863,-0.66 -1.277,-1.02 -0.407,-0.32 -0.797,-0.65 -1.168,-1 -0.328,-0.3 -0.637,-0.62 -0.938,-0.93 -0.363,-0.39 -0.699,-0.79 -1.039,-1.2 -0.34,-0.41 -0.672,-0.82 -0.976,-1.24 -0.282,-0.41 -0.54,-0.81 -0.797,-1.23 -0.137,-0.21 -0.317,-0.39 -0.446,-0.61 -0.121,-0.23 -0.191,-0.47 -0.312,-0.69 -0.223,-0.44 -0.453,-0.86 -0.653,-1.3 -0.226,-0.49 -0.406,-0.98 -0.597,-1.49 -0.184,-0.49 -0.36,-0.97 -0.512,-1.48 -0.129,-0.42 -0.238,-0.85 -0.344,-1.27 -0.117,-0.51 -0.207,-1.02 -0.3,-1.55 -0.082,-0.52 -0.176,-1.05 -0.227,-1.58 -0.043,-0.48 -0.062,-0.96 -0.078,-1.45 -0.008,-0.26 -0.07,-0.5 -0.07,-0.75 v -400.47 c 0,-0.26 0.062,-0.5 0.07,-0.75 0.016,-0.49 0.035,-0.98 0.078,-1.46 0.051,-0.53 0.145,-1.05 0.227,-1.58 0.093,-0.52 0.183,-1.04 0.3,-1.54 0.106,-0.43 0.215,-0.85 0.344,-1.28 0.152,-0.5 0.328,-0.99 0.512,-1.47 0.191,-0.52 0.371,-1.01 0.597,-1.49 0.2,-0.44 0.43,-0.87 0.653,-1.3 0.121,-0.23 0.191,-0.47 0.312,-0.69 0.176,-0.3 0.387,-0.56 0.571,-0.85 0.211,-0.32 0.418,-0.65 0.64,-0.95 0.032,-0.05 0.063,-0.1 0.094,-0.15 0.133,-0.17 0.234,-0.36 0.371,-0.54 0.586,-0.78 1.215,-1.49 1.883,-2.16 0.051,-0.05 0.098,-0.12 0.152,-0.16 0.219,-0.23 0.461,-0.42 0.696,-0.63 0.214,-0.2 0.449,-0.39 0.671,-0.59 0.559,-0.46 1.118,-0.92 1.719,-1.34 0.25,-0.17 0.508,-0.33 0.766,-0.5 0.262,-0.17 0.515,-0.35 0.789,-0.51 0.039,-0.02 0.07,-0.05 0.117,-0.09 l 0.102,-0.05 c 0.039,-0.02 0.078,-0.05 0.117,-0.07 L 951.797,1745.01 639.664,1564.79 c -7.156,-4.13 -11.562,-11.76 -11.562,-20.02 0,-8.26 4.406,-15.89 11.562,-20.02 L 986.48,1324.52 c 0.02,-0.02 0.032,-0.03 0.051,-0.03 0.66,-0.37 1.356,-0.7 2.051,-1.02 0.016,0 0.039,-0.01 0.059,-0.02 0.172,-0.08 0.328,-0.17 0.515,-0.25 0.047,-0.03 0.106,-0.05 0.157,-0.07 0.3,-0.12 0.609,-0.2 0.906,-0.3 0.914,-0.33 1.832,-0.61 2.765,-0.81 0.286,-0.08 0.59,-0.13 0.879,-0.18 1.387,-0.26 2.774,-0.43 4.149,-0.43 0.015,0 0.023,0.01 0.031,0.01 0.004,0 0.008,-0.01 0.023,-0.01 1.383,0 2.764,0.17 4.154,0.43 0.29,0.05 0.59,0.1 0.88,0.18 1.02,0.23 2.03,0.52 3.02,0.9 0.22,0.07 0.43,0.12 0.64,0.21 0.06,0.02 0.11,0.04 0.17,0.07 0.18,0.08 0.34,0.17 0.51,0.25 0.06,0.03 0.12,0.07 0.19,0.09 0.64,0.3 1.3,0.59 1.92,0.95 0.01,0 0.03,0.01 0.05,0.03 l 346.62,200.11 c 0.02,0.01 0.05,0.03 0.07,0.05 l 0.13,0.07 c 0.05,0.03 0.09,0.07 0.14,0.11 0.26,0.14 0.49,0.32 0.74,0.48 0.27,0.16 0.54,0.33 0.81,0.52 0.58,0.41 1.13,0.85 1.68,1.31 0.24,0.21 0.48,0.41 0.7,0.61 0.23,0.21 0.47,0.39 0.68,0.6 0.06,0.07 0.11,0.15 0.17,0.21 0.66,0.66 1.29,1.37 1.86,2.13 0.15,0.18 0.26,0.38 0.38,0.56 0.04,0.04 0.06,0.09 0.09,0.13 0.23,0.31 0.43,0.64 0.64,0.95 0.2,0.3 0.4,0.55 0.56,0.85 0.14,0.23 0.2,0.47 0.32,0.69 0.23,0.43 0.45,0.86 0.66,1.31 0.22,0.48 0.41,0.97 0.59,1.48 0.19,0.48 0.37,0.98 0.52,1.47 0.13,0.43 0.24,0.84 0.33,1.28 0.13,0.51 0.23,1.02 0.31,1.55 0.09,0.52 0.17,1.05 0.22,1.57 0.05,0.49 0.07,0.97 0.08,1.45 0.01,0.26 0.08,0.51 0.08,0.76 v 400.47 c 0,0.25 -0.07,0.49 -0.08,0.76 -0.01,0.48 -0.03,0.96 -0.08,1.45 z"
         id="path54" /></clipPath><linearGradient
       x1="0"
       y1="0"
       x2="1"
       y2="0"
       gradientUnits="userSpaceOnUse"
       gradientTransform="matrix(779.983,779.983,779.983,-779.983,608.068,1555.23)"
       spreadMethod="pad"
       id="linearGradient62"><stop
         style="stop-opacity:1;stop-color:#30887f"
         offset="0"
         id="stop58" /><stop
         style="stop-opacity:1;stop-color:#adad53"
         offset="1"
         id="stop60" /></linearGradient></defs><sodipodi:namedview
     id="namedview4"
     pagecolor="#ffffff"
     bordercolor="#666666"
     borderopacity="1.0"
     inkscape:pageshadow="2"
     inkscape:pageopacity="0.0"
     inkscape:pagecheckerboard="0" /><g
     id="g8"
     inkscape:groupmode="layer"
     inkscape:label="ink_ext_XXXXXX"
     transform="matrix(1.3333333,0,0,-1.3333333,0,342.54667)"><g
       id="g10"
       transform="scale(0.1)"><g
         id="g12"><g
           id="g14"
           clip-path="url(#clipPath18)"><path
             d="m 674.34,1184.36 v 320.37 l 277.457,-160.2 z m -46.238,800.92 -277.457,160.19 277.457,160.18 z m 0,-400.47 -277.457,160.19 277.457,160.19 z m 0,-400.45 -277.457,160.17 277.457,160.2 z M 327.523,1704.95 604.98,1544.77 327.523,1384.58 Z m 0,400.47 277.457,-160.19 -277.457,-160.18 v 200.23 z m 686.987,-746.55 -340.17,198.36 c 0,0 0,782.25 0,790.55 0,12.88 -12.012,18.13 -12.227,18.24 -0.445,0.25 -0.883,0.48 -1.351,0.69 -0.473,0.22 -0.953,0.39 -1.442,0.58 -0.492,0.18 -0.976,0.36 -1.472,0.51 -0.45,0.14 -0.887,0.25 -1.336,0.35 -0.489,0.12 -0.977,0.2 -1.473,0.29 -0.539,0.08 -1.066,0.19 -1.601,0.23 -0.5,0.05 -0.997,0.06 -1.508,0.08 -0.242,0 -0.469,0.07 -0.711,0.07 -0.239,0 -0.469,-0.07 -0.715,-0.07 -0.504,-0.02 -0.992,-0.03 -1.492,-0.08 -0.551,-0.04 -1.078,-0.14 -1.621,-0.23 -0.5,-0.09 -0.989,-0.17 -1.469,-0.29 -0.445,-0.1 -0.883,-0.21 -1.317,-0.35 -0.503,-0.15 -0.996,-0.34 -1.5,-0.51 -0.484,-0.19 -0.96,-0.36 -1.429,-0.58 -0.465,-0.21 -0.91,-0.44 -1.348,-0.69 -0.223,-0.11 -0.449,-0.16 -0.672,-0.29 L 292.84,2165.49 c -0.223,-0.13 -0.395,-0.3 -0.61,-0.44 -0.41,-0.25 -0.824,-0.51 -1.214,-0.79 -0.446,-0.31 -0.864,-0.66 -1.282,-1.01 -0.402,-0.32 -0.793,-0.66 -1.16,-1.01 -0.332,-0.3 -0.64,-0.61 -0.941,-0.93 -0.363,-0.39 -0.699,-0.79 -1.035,-1.2 -0.34,-0.41 -0.676,-0.81 -0.985,-1.24 -0.277,-0.4 -0.535,-0.81 -0.793,-1.23 -0.136,-0.21 -0.32,-0.39 -0.441,-0.61 -0.125,-0.23 -0.191,-0.47 -0.313,-0.69 -0.23,-0.43 -0.453,-0.86 -0.66,-1.3 -0.222,-0.49 -0.402,-0.98 -0.593,-1.49 -0.188,-0.48 -0.364,-0.97 -0.512,-1.48 -0.125,-0.42 -0.235,-0.84 -0.344,-1.27 -0.117,-0.51 -0.211,-1.02 -0.297,-1.55 -0.09,-0.52 -0.176,-1.05 -0.23,-1.57 -0.043,-0.49 -0.063,-0.97 -0.078,-1.45 -0.004,-0.27 -0.075,-0.51 -0.075,-0.76 V 1985.28 1745 1344.54 h 0.008 c 0,0 -0.008,0 -0.008,-0.01 0,-8.26 4.411,-15.89 11.563,-20.02 l 346.816,-200.23 c 0.02,-0.01 0.035,-0.03 0.055,-0.03 0.664,-0.37 1.352,-0.7 2.051,-1.02 0.019,0 0.039,-0.01 0.058,-0.02 0.172,-0.08 0.328,-0.17 0.512,-0.25 0.051,-0.02 0.109,-0.04 0.164,-0.07 0.297,-0.13 0.606,-0.19 0.906,-0.3 0.911,-0.33 1.828,-0.61 2.758,-0.81 0.289,-0.07 0.594,-0.13 0.879,-0.18 1.387,-0.26 2.774,-0.43 4.152,-0.43 0.016,0 0.024,0.01 0.028,0.01 0.008,0 0.015,-0.01 0.027,-0.01 1.379,0 2.766,0.17 4.149,0.43 0.293,0.05 0.589,0.11 0.882,0.18 1.024,0.22 2.032,0.52 3.02,0.9 0.219,0.07 0.433,0.12 0.648,0.21 0.051,0.02 0.11,0.05 0.16,0.07 0.184,0.08 0.344,0.17 0.516,0.25 0.063,0.03 0.125,0.07 0.188,0.1 0.64,0.29 1.296,0.58 1.914,0.94 0.015,0 0.039,0.02 0.058,0.03 L 1009.4,1324.4 c 0.02,0.01 0.05,0.02 0.07,0.04 l 0.13,0.07 c 0.06,0.04 0.09,0.07 0.15,0.11 0.25,0.14 0.48,0.32 0.73,0.48 0.27,0.17 0.54,0.33 0.8,0.52 0.58,0.41 1.14,0.85 1.7,1.32 0.22,0.2 0.47,0.4 0.69,0.61 0.23,0.2 0.47,0.38 0.68,0.59 0.06,0.07 0.11,0.15 0.17,0.21 0.67,0.66 1.29,1.37 1.86,2.13 0.15,0.18 0.26,0.38 0.39,0.56 0.03,0.05 0.05,0.1 0.08,0.13 0.22,0.31 0.43,0.64 0.64,0.96 0.2,0.29 0.4,0.54 0.57,0.84 0.13,0.23 0.19,0.47 0.31,0.69 0.23,0.43 0.46,0.86 0.66,1.31 0.22,0.48 0.41,0.97 0.59,1.48 0.19,0.48 0.36,0.98 0.52,1.47 0.12,0.43 0.24,0.85 0.34,1.28 0.12,0.51 0.21,1.02 0.3,1.55 0.09,0.52 0.17,1.05 0.23,1.57 0.04,0.49 0.06,0.98 0.07,1.46 0.01,0.25 0,11.27 -6.57,15.09"
             style="fill:url(#linearGradient24);fill-opacity:1;fill-rule:nonzero;stroke:none"
             id="path26" /></g></g><g
         id="g28"><g
           id="g30"
           clip-path="url(#clipPath34)"><path
             d="m 1044.21,1344.54 277.45,160.19 v -320.36 z m 323.69,961.12 277.45,-160.19 -277.45,-160.18 z m 0,-400.47 277.45,-160.18 -277.45,-160.2 z m 0,-400.46 277.45,-160.19 -277.45,-160.17 z m 300.58,-120.15 -277.46,160.2 277.46,160.18 z m 0,600.71 v -200.23 l -277.46,160.19 277.46,160.18 z M 974.922,1343.78 c 0.008,-0.48 0.023,-0.96 0.074,-1.46 0.051,-0.51 0.137,-1.04 0.227,-1.57 0.086,-0.52 0.175,-1.03 0.304,-1.54 0.098,-0.44 0.211,-0.85 0.332,-1.28 0.157,-0.49 0.329,-0.99 0.516,-1.47 0.188,-0.51 0.371,-1 0.598,-1.49 0.199,-0.44 0.429,-0.87 0.664,-1.3 0.113,-0.23 0.176,-0.47 0.308,-0.69 0.168,-0.3 0.371,-0.55 0.567,-0.85 0.203,-0.32 0.414,-0.64 0.636,-0.95 0.032,-0.04 0.055,-0.09 0.086,-0.13 0.129,-0.18 0.239,-0.38 0.383,-0.57 0.574,-0.75 1.199,-1.46 1.863,-2.12 0.063,-0.06 0.11,-0.14 0.168,-0.21 0.215,-0.21 0.45,-0.39 0.68,-0.6 0.227,-0.2 0.469,-0.4 0.699,-0.61 0.551,-0.46 1.11,-0.9 1.688,-1.31 0.269,-0.19 0.535,-0.36 0.801,-0.52 0.25,-0.16 0.484,-0.35 0.738,-0.48 0.055,-0.04 0.09,-0.08 0.148,-0.11 l 0.125,-0.07 c 0.032,-0.03 0.051,-0.04 0.078,-0.05 l 346.605,-200.11 c 0.03,-0.02 0.05,-0.03 0.07,-0.03 0.62,-0.36 1.27,-0.66 1.91,-0.95 0.06,-0.02 0.12,-0.06 0.19,-0.1 0.17,-0.07 0.33,-0.16 0.52,-0.24 0.05,-0.03 0.11,-0.05 0.15,-0.08 0.22,-0.08 0.43,-0.13 0.66,-0.2 0.98,-0.39 1.99,-0.68 3.02,-0.9 0.28,-0.07 0.58,-0.13 0.88,-0.19 1.38,-0.25 2.77,-0.42 4.15,-0.42 0.01,0 0.01,0.01 0.02,0.01 0,0 0.01,-0.01 0.02,-0.01 1.39,0 2.78,0.17 4.16,0.42 0.29,0.06 0.59,0.12 0.88,0.19 0.93,0.2 1.85,0.48 2.76,0.81 0.3,0.1 0.61,0.17 0.91,0.29 0.05,0.03 0.1,0.05 0.15,0.08 0.19,0.08 0.35,0.17 0.52,0.24 0.02,0.02 0.04,0.03 0.06,0.03 0.69,0.31 1.38,0.65 2.05,1.02 0.02,0 0.04,0.01 0.06,0.03 l 346.81,200.23 c 7.15,4.13 11.56,11.76 11.56,20.02 v 0.01 0 400.46 240.28 160.18 c 0,0.26 -0.06,0.5 -0.07,0.76 -0.01,0.49 -0.03,0.97 -0.08,1.46 -0.05,0.52 -0.14,1.04 -0.22,1.57 -0.09,0.53 -0.19,1.04 -0.31,1.54 -0.1,0.43 -0.21,0.86 -0.34,1.28 -0.15,0.5 -0.32,0.99 -0.52,1.47 -0.18,0.51 -0.36,1.01 -0.58,1.5 -0.21,0.44 -0.43,0.86 -0.67,1.3 -0.11,0.22 -0.18,0.46 -0.31,0.69 -0.13,0.22 -0.3,0.39 -0.44,0.61 -0.25,0.42 -0.52,0.82 -0.79,1.23 -0.31,0.42 -0.64,0.83 -0.99,1.24 -0.34,0.41 -0.67,0.81 -1.03,1.2 -0.3,0.32 -0.61,0.63 -0.94,0.93 -0.37,0.35 -0.76,0.68 -1.16,1.01 -0.42,0.35 -0.84,0.7 -1.29,1.01 -0.39,0.28 -0.8,0.53 -1.21,0.78 -0.22,0.14 -0.39,0.32 -0.61,0.45 l -346.81,200.23 c -0.23,0.13 -0.45,0.18 -0.68,0.31 -0.44,0.23 -0.88,0.47 -1.34,0.67 -0.47,0.22 -0.95,0.4 -1.44,0.58 -0.5,0.19 -0.99,0.37 -1.49,0.52 -0.44,0.14 -0.87,0.25 -1.32,0.35 -0.48,0.12 -0.97,0.2 -1.47,0.28 -0.54,0.1 -1.07,0.19 -1.62,0.24 -0.5,0.05 -0.99,0.06 -1.49,0.07 -0.25,0.02 -0.48,0.08 -0.72,0.08 -0.24,0 -0.46,-0.06 -0.71,-0.08 -0.51,-0.01 -1,-0.02 -1.5,-0.07 -0.54,-0.05 -1.07,-0.14 -1.61,-0.23 -0.49,-0.09 -0.98,-0.17 -1.47,-0.29 -0.46,-0.1 -0.89,-0.21 -1.34,-0.35 -0.49,-0.15 -0.98,-0.33 -1.47,-0.51 -0.49,-0.19 -0.97,-0.37 -1.44,-0.59 -0.47,-0.2 -0.9,-0.44 -1.35,-0.67 -0.22,-0.13 -12.23,-5.37 -12.23,-18.25 0,-8.3 0,-794.92 0,-794.92 L 981.5,1358.88 c -6.578,-3.82 -6.582,-14.84 -6.578,-15.1"
             style="fill:url(#linearGradient40);fill-opacity:1;fill-rule:nonzero;stroke:none"
             id="path42" /></g></g><g
         id="g44"><g
           id="g46"
           clip-path="url(#clipPath50)"><g
             id="g52"
             clip-path="url(#clipPath56)"><path
               d="m 993,1321 v 1 h -4 v 1 h -2 v 1 h -2 v 1 h -2 v 1 h -1 v 1 h -2 v 1 h -2 v 1 h -2 v 1 h -1 v 1 h -2 v 1 h -2 v 1 h -1 v 1 h -2 v 1 h -2 v 1 h -2 v 1 h -1 v 1 h -2 v 1 h -2 v 1 h -2 v 1 h -1 v 1 h -2 v 1 h -2 v 1 h -1 v 1 h -2 v 1 h -2 v 1 h -2 v 1 h -1 v 1 h -2 v 1 h -2 v 1 h -2 v 1 h -1 v 1 h -2 v 1 h -2 v 1 h -2 v 1 h -1 v 1 h -2 v 1 h -2 v 1 h -1 v 1 h -2 v 1 h -2 v 1 h -2 v 1 h -1 v 1 h -2 v 1 h -2 v 1 h -2 v 1 h -1 v 1 h -2 v 1 h -2 v 1 h -2 v 1 h -1 v 1 h -2 v 1 h -2 v 1 h -1 v 1 h -2 v 1 h -2 v 1 h -2 v 1 h -1 v 1 h -2 v 1 h -2 v 1 h -2 v 1 h -1 v 1 h -2 v 1 h -2 v 1 h -2 v 1 h -1 v 1 h -2 v 1 h -2 v 1 h -1 v 1 h -2 v 1 h -2 v 1 h -2 v 1 h -1 v 1 h -2 v 1 h -2 v 1 h -2 v 1 h -1 v 1 h -2 v 1 h -2 v 1 h -1 v 1 h -2 v 1 h -2 v 1 h -2 v 1 h -1 v 1 h -2 v 1 h -2 v 1 h -2 v 1 h -1 v 1 h -2 v 1 h -2 v 1 h -2 v 1 h -1 v 1 h -2 v 1 h -2 v 1 h -1 v 1 h -2 v 1 h -2 v 1 h -2 v 1 h -1 v 1 h -2 v 1 h -2 v 1 h -2 v 1 h -1 v 1 h -2 v 1 h -2 v 1 h -2 v 1 h -1 v 1 h -2 v 1 h -2 v 1 h -1 v 1 h -2 v 1 h -2 v 1 h -2 v 1 h -1 v 1 h -2 v 1 h -2 v 1 h -2 v 1 h -1 v 1 h -2 v 1 h -2 v 1 h -1 v 1 h -2 v 1 h -2 v 1 h -2 v 1 h -1 v 1 h -2 v 1 h -2 v 1 h -2 v 1 h -1 v 1 h -2 v 1 h -2 v 1 h -2 v 1 h -1 v 1 h -2 v 1 h -2 v 1 h -1 v 1 h -2 v 1 h -2 v 1 h -2 v 1 h -1 v 1 h -2 v 1 h -2 v 1 h -2 v 1 h -1 v 1 h -2 v 1 h -2 v 1 h -2 v 1 h -1 v 1 h -2 v 1 h -2 v 1 h -1 v 1 h -2 v 1 h -2 v 1 h -2 v 1 h -1 v 1 h -2 v 1 h -2 v 1 h -2 v 1 h -1 v 1 h -2 v 1 h -2 v 1 h -2 v 1 h -1 v 1 h -2 v 1 h -2 v 1 h -1 v 1 h -2 v 1 h -2 v 1 h -2 v 1 h -1 v 1 h -2 v 1 h -2 v 1 h -2 v 1 h -1 v 1 h -2 v 1 h -2 v 1 h -1 v 1 h -2 v 1 h -2 v 1 h -2 v 1 h -1 v 1 h -2 v 1 h -2 v 1 h -2 v 1 h -1 v 1 h -2 v 1 h -2 v 1 h -2 v 1 h -1 v 1 h -2 v 1 h -2 v 1 h -1 v 1 h -2 v 1 h -2 v 1 h -2 v 1 h -1 v 1 h -2 v 1 h -2 v 1 h -2 v 1 h -1 v 1 h -2 v 1 h -2 v 1 h -2 v 1 h -1 v 1 h -2 v 1 h -1 v 1 h -1 v 1 h -1 v 1 h -1 v 1 h -1 v 2 h -1 v 1 h -1 v 3 h -1 v 2 h -1 v 14 h 1 v 2 h 1 v 2 h 1 v 2 h 1 v 1 h 1 v 1 h 1 v 2 h 1 v 1 h 2 v 1 h 1 v 1 h 2 v 1 h 1 v 1 h 2 v 1 h 2 v 1 h 1 v 1 h 2 v 1 h 2 v 1 h 2 v 1 h 1 v 1 h 2 v 1 h 2 v 1 h 2 v 1 h 1 v 1 h 2 v 1 h 2 v 1 h 2 v 1 h 1 v 1 h 2 v 1 h 2 v 1 h 1 v 1 h 2 v 1 h 2 v 1 h 2 v 1 h 1 v 1 h 2 v 1 h 2 v 1 h 2 v 1 h 1 v 1 h 2 v 1 h 2 v 1 h 1 v 1 h 2 v 1 h 2 v 1 h 2 v 1 h 1 v 1 h 2 v 1 h 2 v 1 h 2 v 1 h 1 v 1 h 2 v 1 h 2 v 1 h 2 v 1 h 1 v 1 h 2 v 1 h 2 v 1 h 1 v 1 h 2 v 1 h 2 v 1 h 2 v 1 h 1 v 1 h 2 v 1 h 2 v 1 h 2 v 1 h 1 v 1 h 2 v 1 h 2 v 1 h 2 v 1 h 1 v 1 h 2 v 1 h 2 v 1 h 1 v 1 h 2 v 1 h 2 v 1 h 2 v 1 h 1 v 1 h 2 v 1 h 2 v 1 h 2 v 1 h 1 v 1 h 2 v 1 h 2 v 1 h 2 v 1 h 1 v 1 h 2 v 1 h 2 v 1 h 1 v 1 h 2 v 1 h 2 v 1 h 2 v 1 h 1 v 1 h 2 v 1 h 2 v 1 h 2 v 1 h 1 v 1 h 2 v 1 h 2 v 1 h 1 v 1 h 2 v 1 h 2 v 1 h 2 v 1 h 1 v 1 h 2 v 1 h 2 v 1 h 2 v 1 h 1 v 1 h 2 v 1 h 2 v 1 h 2 v 1 h 1 v 1 h 2 v 1 h 2 v 1 h 1 v 1 h 2 v 1 h 2 v 1 h 2 v 1 h 1 v 1 h 2 v 1 h 2 v 1 h 2 v 1 h 1 v 1 h 2 v 1 h 2 v 1 h 2 v 1 h 1 v 1 h 2 v 1 h 2 v 1 h 1 v 1 h 2 v 1 h 2 v 1 h 2 v 1 h 1 v 1 h 2 v 1 h 2 v 1 h 2 v 1 h 1 v 1 h 2 v 1 h 2 v 1 h 1 v 1 h 2 v 1 h 2 v 1 h 2 v 1 h 1 v 1 h 2 v 1 h 2 v 1 h 2 v 1 h 1 v 1 h 2 v 1 h 2 v 1 h 2 v 1 h 1 v 1 h 2 v 1 h 2 v 1 h 1 v 1 h 2 v 1 h 2 v 1 h 2 v 1 h 1 v 1 h 2 v 1 h 2 v 1 h 2 v 1 h 1 v 1 h 2 v 1 h 2 v 1 h 2 v 1 h 1 v 1 h 2 v 1 h 2 v 1 h 1 v 1 h 2 v 1 h 2 v 1 h 2 v 1 h 1 v 1 h 2 v 1 h 2 v 1 h 2 v 1 h 1 v 1 h 2 v 1 h 2 v 1 h 1 v 1 h 2 v 1 h 2 v 1 h 2 v 1 h 1 v 1 h 2 v 1 h 2 v 1 h 2 v 1 h 1 v 1 h 2 v 1 h 2 v 1 h 2 v 2 h -2 v 1 h -2 v 1 h -2 v 1 h -1 v 1 h -2 v 1 h -2 v 1 h -2 v 1 h -1 v 1 h -2 v 1 h -2 v 1 h -1 v 1 h -2 v 1 h -2 v 1 h -2 v 1 h -1 v 1 h -2 v 1 h -2 v 1 h -2 v 1 h -1 v 1 h -2 v 1 h -2 v 1 h -2 v 1 h -1 v 1 h -2 v 1 h -2 v 1 h -1 v 1 h -2 v 1 h -2 v 1 h -2 v 1 h -1 v 1 h -2 v 1 h -2 v 1 h -2 v 1 h -1 v 1 h -2 v 1 h -2 v 1 h -1 v 1 h -2 v 1 h -2 v 1 h -2 v 1 h -1 v 1 h -2 v 1 h -2 v 1 h -2 v 1 h -1 v 1 h -2 v 1 h -2 v 1 h -2 v 1 h -1 v 1 h -2 v 1 h -2 v 1 h -1 v 1 h -2 v 1 h -2 v 1 h -2 v 1 h -1 v 1 h -2 v 1 h -2 v 1 h -2 v 1 h -1 v 1 h -2 v 1 h -2 v 1 h -2 v 1 h -1 v 1 h -2 v 1 h -2 v 1 h -1 v 1 h -2 v 1 h -2 v 1 h -2 v 1 h -1 v 1 h -2 v 1 h -2 v 1 h -2 v 1 h -1 v 1 h -2 v 1 h -2 v 1 h -2 v 1 h -1 v 1 h -2 v 1 h -2 v 1 h -1 v 1 h -2 v 1 h -2 v 1 h -2 v 1 h -1 v 1 h -2 v 1 h -2 v 1 h -2 v 1 h -1 v 1 h -2 v 1 h -2 v 1 h -1 v 1 h -2 v 1 h -2 v 1 h -2 v 1 h -1 v 1 h -2 v 1 h -2 v 1 h -2 v 1 h -1 v 1 h -2 v 1 h -2 v 1 h -2 v 1 h -1 v 1 h -2 v 1 h -2 v 1 h -1 v 1 h -2 v 1 h -2 v 1 h -2 v 1 h -1 v 1 h -2 v 1 h -2 v 1 h -2 v 1 h -1 v 1 h -2 v 1 h -2 v 1 h -2 v 1 h -1 v 1 h -2 v 1 h -2 v 1 h -1 v 1 h -2 v 1 h -2 v 1 h -2 v 1 h -1 v 1 h -2 v 1 h -2 v 1 h -2 v 1 h -1 v 1 h -2 v 1 h -2 v 1 h -2 v 1 h -1 v 1 h -2 v 1 h -2 v 1 h -1 v 1 h -2 v 1 h -2 v 1 h -2 v 1 h -1 v 1 h -2 v 1 h -2 v 1 h -2 v 1 h -1 v 1 h -2 v 1 h -2 v 1 h -1 v 1 h -2 v 1 h -2 v 1 h -2 v 1 h -1 v 1 h -2 v 1 h -2 v 1 h -2 v 1 h -1 v 1 h -2 v 1 h -2 v 1 h -2 v 1 h -1 v 1 h -2 v 1 h -2 v 1 h -1 v 1 h -2 v 1 h -2 v 1 h -2 v 1 h -1 v 1 h -2 v 1 h -2 v 1 h -2 v 1 h -1 v 1 h -2 v 1 h -2 v 1 h -2 v 1 h -1 v 1 h -2 v 1 h -2 v 1 h -1 v 1 h -2 v 1 h -1 v 1 h -2 v 1 h -1 v 1 h -1 v 2 h -1 v 1 h -1 v 2 h -1 v 2 h -1 v 3 h -1 v 413 h 1 v 3 h 1 v 2 h 1 v 2 h 1 v 1 h 1 v 2 h 1 v 1 h 1 v 1 h 2 v 1 h 1 v 1 h 2 v 1 h 1 v 1 h 2 v 1 h 2 v 1 h 2 v 1 h 1 v 1 h 2 v 1 h 2 v 1 h 1 v 1 h 2 v 1 h 2 v 1 h 2 v 1 h 1 v 1 h 2 v 1 h 2 v 1 h 2 v 1 h 1 v 1 h 2 v 1 h 2 v 1 h 2 v 1 h 1 v 1 h 2 v 1 h 2 v 1 h 1 v 1 h 2 v 1 h 2 v 1 h 2 v 1 h 1 v 1 h 2 v 1 h 2 v 1 h 2 v 1 h 1 v 1 h 2 v 1 h 2 v 1 h 2 v 1 h 1 v 1 h 2 v 1 h 2 v 1 h 1 v 1 h 2 v 1 h 2 v 1 h 2 v 1 h 1 v 1 h 2 v 1 h 2 v 1 h 2 v 1 h 1 v 1 h 2 v 1 h 2 v 1 h 2 v 1 h 1 v 1 h 2 v 1 h 2 v 1 h 1 v 1 h 2 v 1 h 2 v 1 h 2 v 1 h 1 v 1 h 2 v 1 h 2 v 1 h 2 v 1 h 1 v 1 h 2 v 1 h 2 v 1 h 1 v 1 h 2 v 1 h 2 v 1 h 2 v 1 h 1 v 1 h 2 v 1 h 2 v 1 h 2 v 1 h 1 v 1 h 2 v 1 h 2 v 1 h 2 v 1 h 1 v 1 h 2 v 1 h 2 v 1 h 1 v 1 h 2 v 1 h 2 v 1 h 2 v 1 h 1 v 1 h 2 v 1 h 2 v 1 h 2 v 1 h 1 v 1 h 2 v 1 h 2 v 1 h 2 v 1 h 1 v 1 h 2 v 1 h 2 v 1 h 1 v 1 h 2 v 1 h 2 v 1 h 2 v 1 h 1 v 1 h 2 v 1 h 2 v 1 h 2 v 1 h 1 v 1 h 2 v 1 h 2 v 1 h 1 v 1 h 2 v 1 h 2 v 1 h 2 v 1 h 1 v 1 h 2 v 1 h 2 v 1 h 2 v 1 h 1 v 1 h 2 v 1 h 2 v 1 h 2 v 1 h 1 v 1 h 2 v 1 h 2 v 1 h 1 v 1 h 2 v 1 h 2 v 1 h 2 v 1 h 1 v 1 h 2 v 1 h 2 v 1 h 2 v 1 h 1 v 1 h 2 v 1 h 2 v 1 h 2 v 1 h 1 v 1 h 2 v 1 h 2 v 1 h 1 v 1 h 2 v 1 h 2 v 1 h 2 v 1 h 1 v 1 h 2 v 1 h 2 v 1 h 2 v 1 h 1 v 1 h 2 v 1 h 2 v 1 h 2 v 1 h 1 v 1 h 2 v 1 h 2 v 1 h 1 v 1 h 2 v 1 h 2 v 1 h 2 v 1 h 1 v 1 h 2 v 1 h 2 v 1 h 2 v 1 h 1 v 1 h 2 v 1 h 2 v 1 h 1 v 1 h 2 v 1 h 2 v 1 h 2 v 1 h 1 v 1 h 2 v 1 h 2 v 1 h 2 v 1 h 1 v 1 h 2 v 1 h 2 v 1 h 2 v 1 h 1 v 1 h 2 v 1 h 2 v 1 h 1 v 1 h 2 v 1 h 2 v 1 h 2 v 1 h 1 v 1 h 2 v 1 h 2 v 1 h 2 v 1 h 1 v 1 h 2 v 1 h 2 v 1 h 2 v 1 h 1 v 1 h 2 v 1 h 2 v 1 h 1 v 1 h 2 v 1 h 2 v 1 h 2 v 1 h 1 v 1 h 2 v 1 h 2 v 1 h 2 v 1 h 1 v 1 h 2 v 1 h 2 v 1 h 3 v 1 h 14 v -1 h 3 v -1 h 2 v -1 h 2 v -1 h 2 v -1 h 1 v -1 h 2 v -1 h 2 v -1 h 1 v -1 h 2 v -1 h 2 v -1 h 2 v -1 h 1 v -1 h 2 v -1 h 2 v -1 h 2 v -1 h 1 v -1 h 2 v -1 h 2 v -1 h 1 v -1 h 2 v -1 h 2 v -1 h 2 v -1 h 1 v -1 h 2 v -1 h 2 v -1 h 2 v -1 h 1 v -1 h 2 v -1 h 2 v -1 h 2 v -1 h 1 v -1 h 2 v -1 h 2 v -1 h 1 v -1 h 2 v -1 h 2 v -1 h 2 v -1 h 1 v -1 h 2 v -1 h 2 v -1 h 2 v -1 h 1 v -1 h 2 v -1 h 2 v -1 h 2 v -1 h 1 v -1 h 2 v -1 h 2 v -1 h 1 v -1 h 2 v -1 h 2 v -1 h 2 v -1 h 1 v -1 h 2 v -1 h 2 v -1 h 2 v -1 h 1 v -1 h 2 v -1 h 2 v -1 h 2 v -1 h 1 v -1 h 2 v -1 h 2 v -1 h 1 v -1 h 2 v -1 h 2 v -1 h 2 v -1 h 1 v -1 h 2 v -1 h 2 v -1 h 2 v -1 h 1 v -1 h 2 v -1 h 2 v -1 h 1 v -1 h 2 v -1 h 2 v -1 h 2 v -1 h 1 v -1 h 2 v -1 h 2 v -1 h 2 v -1 h 1 v -1 h 2 v -1 h 2 v -1 h 2 v -1 h 1 v -1 h 2 v -1 h 2 v -1 h 1 v -1 h 2 v -1 h 2 v -1 h 2 v -1 h 1 v -1 h 2 v -1 h 2 v -1 h 2 v -1 h 1 v -1 h 2 v -1 h 2 v -1 h 2 v -1 h 1 v -1 h 2 v -1 h 2 v -1 h 1 v -1 h 2 v -1 h 2 v -1 h 2 v -1 h 1 v -1 h 2 v -1 h 2 v -1 h 2 v -1 h 1 v -1 h 2 v -1 h 2 v -1 h 1 v -1 h 2 v -1 h 2 v -1 h 2 v -1 h 1 v -1 h 2 v -1 h 2 v -1 h 2 v -1 h 1 v -1 h 2 v -1 h 2 v -1 h 2 v -1 h 1 v -1 h 2 v -1 h 2 v -1 h 1 v -1 h 2 v -1 h 2 v -1 h 2 v -1 h 1 v -1 h 2 v -1 h 2 v -1 h 2 v -1 h 1 v -1 h 2 v -1 h 2 v -1 h 2 v -1 h 1 v -1 h 2 v -1 h 2 v -1 h 1 v -1 h 2 v -1 h 2 v -1 h 2 v -1 h 1 v -1 h 2 v -1 h 2 v -1 h 2 v -1 h 1 v -1 h 2 v -1 h 2 v -1 h 2 v -1 h 1 v -1 h 2 v -1 h 2 v -1 h 1 v -1 h 2 v -1 h 2 v -1 h 2 v -1 h 1 v -1 h 2 v -1 h 2 v -1 h 2 v -1 h 1 v -1 h 2 v -1 h 2 v -1 h 1 v -1 h 2 v -1 h 2 v -1 h 2 v -1 h 1 v -1 h 2 v -1 h 2 v -1 h 2 v -1 h 1 v -1 h 2 v -1 h 2 v -1 h 2 v -1 h 1 v -1 h 2 v -1 h 2 v -1 h 1 v -1 h 2 v -1 h 2 v -1 h 2 v -1 h 1 v -1 h 2 v -1 h 2 v -1 h 2 v -1 h 1 v -1 h 2 v -1 h 2 v -1 h 2 v -1 h 1 v -1 h 2 v -1 h 2 v -1 h 1 v -1 h 2 v -1 h 1 v -1 h 2 v -1 h 1 v -1 h 1 v -2 h 1 v -1 h 1 v -2 h 1 v -2 h 1 v -2 h 1 v -14 h -1 v -3 h -1 v -2 h -1 v -2 h -1 v -1 h -1 v -1 h -1 v -1 h -1 v -1 h -1 v -1 h -1 v -1 h -2 v -1 h -1 v -1 h -2 v -1 h -2 v -1 h -1 v -1 h -2 v -1 h -2 v -1 h -2 v -1 h -1 v -1 h -2 v -1 h -2 v -1 h -2 v -1 h -1 v -1 h -2 v -1 h -2 v -1 h -2 v -1 h -1 v -1 h -2 v -1 h -2 v -1 h -1 v -1 h -2 v -1 h -2 v -1 h -2 v -1 h -1 v -1 h -2 v -1 h -2 v -1 h -2 v -1 h -1 v -1 h -2 v -1 h -2 v -1 h -2 v -1 h -1 v -1 h -2 v -1 h -2 v -1 h -1 v -1 h -2 v -1 h -2 v -1 h -2 v -1 h -1 v -1 h -2 v -1 h -2 v -1 h -2 v -1 h -1 v -1 h -2 v -1 h -2 v -1 h -1 v -1 h -2 v -1 h -2 v -1 h -2 v -1 h -1 v -1 h -2 v -1 h -2 v -1 h -2 v -1 h -1 v -1 h -2 v -1 h -2 v -1 h -2 v -1 h -1 v -1 h -2 v -1 h -2 v -1 h -1 v -1 h -2 v -1 h -2 v -1 h -2 v -1 h -1 v -1 h -2 v -1 h -2 v -1 h -2 v -1 h -1 v -1 h -2 v -1 h -2 v -1 h -2 v -1 h -1 v -1 h -2 v -1 h -2 v -1 h -1 v -1 h -2 v -1 h -2 v -1 h -2 v -1 h -1 v -1 h -2 v -1 h -2 v -1 h -2 v -1 h -1 v -1 h -2 v -1 h -2 v -1 h -1 v -1 h -2 v -1 h -2 v -1 h -2 v -1 h -1 v -1 h -2 v -1 h -2 v -1 h -2 v -1 h -1 v -1 h -2 v -1 h -2 v -1 h -2 v -1 h -1 v -1 h -2 v -1 h -2 v -1 h -1 v -1 h -2 v -1 h -2 v -1 h -2 v -1 h -1 v -1 h -2 v -1 h -2 v -1 h -2 v -1 h -1 v -1 h -2 v -1 h -2 v -1 h -2 v -1 h -1 v -1 h -2 v -1 h -2 v -1 h -1 v -1 h -2 v -1 h -2 v -1 h -2 v -1 h -1 v -1 h -2 v -1 h -2 v -1 h -2 v -1 h -1 v -1 h -2 v -1 h -2 v -1 h -2 v -1 h -1 v -1 h -2 v -1 h -2 v -1 h -1 v -1 h -2 v -1 h -2 v -1 h -2 v -1 h -1 v -1 h -2 v -1 h -2 v -1 h -2 v -1 h -1 v -1 h -2 v -1 h -2 v -1 h -1 v -1 h -2 v -1 h -2 v -1 h -2 v -1 h -1 v -1 h -2 v -1 h -2 v -1 h -2 v -1 h -1 v -1 h -2 v -1 h -2 v -1 h -2 v -1 h -1 v -1 h -2 v -1 h -2 v -1 h -1 v -1 h -2 v -1 h -2 v -1 h -2 v -1 h -1 v -1 h -2 v -1 h -2 v -1 h -2 v -1 h -1 v -1 h -2 v -1 h -2 v -1 h -2 v -1 h -1 v -1 h -2 v -1 h -2 v -1 h -1 v -1 h -2 v -1 h -2 v -1 h -2 v -1 h -1 v -1 h -2 v -1 h -2 v -1 h -2 v -1 h -1 v -1 h 1 v -1 h 2 v -1 h 2 v -1 h 2 v -1 h 1 v -1 h 2 v -1 h 2 v -1 h 1 v -1 h 2 v -1 h 2 v -1 h 2 v -1 h 1 v -1 h 2 v -1 h 2 v -1 h 2 v -1 h 1 v -1 h 2 v -1 h 2 v -1 h 2 v -1 h 1 v -1 h 2 v -1 h 2 v -1 h 1 v -1 h 2 v -1 h 2 v -1 h 2 v -1 h 1 v -1 h 2 v -1 h 2 v -1 h 2 v -1 h 1 v -1 h 2 v -1 h 2 v -1 h 1 v -1 h 2 v -1 h 2 v -1 h 2 v -1 h 1 v -1 h 2 v -1 h 2 v -1 h 2 v -1 h 1 v -1 h 2 v -1 h 2 v -1 h 2 v -1 h 1 v -1 h 2 v -1 h 2 v -1 h 1 v -1 h 2 v -1 h 2 v -1 h 2 v -1 h 1 v -1 h 2 v -1 h 2 v -1 h 2 v -1 h 1 v -1 h 2 v -1 h 2 v -1 h 2 v -1 h 1 v -1 h 2 v -1 h 2 v -1 h 1 v -1 h 2 v -1 h 2 v -1 h 2 v -1 h 1 v -1 h 2 v -1 h 2 v -1 h 2 v -1 h 1 v -1 h 2 v -1 h 2 v -1 h 2 v -1 h 1 v -1 h 2 v -1 h 2 v -1 h 1 v -1 h 2 v -1 h 2 v -1 h 2 v -1 h 1 v -1 h 2 v -1 h 2 v -1 h 2 v -1 h 1 v -1 h 2 v -1 h 2 v -1 h 1 v -1 h 2 v -1 h 2 v -1 h 2 v -1 h 1 v -1 h 2 v -1 h 2 v -1 h 2 v -1 h 1 v -1 h 2 v -1 h 2 v -1 h 2 v -1 h 1 v -1 h 2 v -1 h 2 v -1 h 1 v -1 h 2 v -1 h 2 v -1 h 2 v -1 h 1 v -1 h 2 v -1 h 2 v -1 h 2 v -1 h 1 v -1 h 2 v -1 h 2 v -1 h 2 v -1 h 1 v -1 h 2 v -1 h 2 v -1 h 1 v -1 h 2 v -1 h 2 v -1 h 2 v -1 h 1 v -1 h 2 v -1 h 2 v -1 h 2 v -1 h 1 v -1 h 2 v -1 h 2 v -1 h 2 v -1 h 1 v -1 h 2 v -1 h 2 v -1 h 1 v -1 h 2 v -1 h 2 v -1 h 2 v -1 h 1 v -1 h 2 v -1 h 2 v -1 h 2 v -1 h 1 v -1 h 2 v -1 h 2 v -1 h 1 v -1 h 2 v -1 h 2 v -1 h 2 v -1 h 1 v -1 h 2 v -1 h 2 v -1 h 2 v -1 h 1 v -1 h 2 v -1 h 2 v -1 h 2 v -1 h 1 v -1 h 2 v -1 h 2 v -1 h 1 v -1 h 2 v -1 h 2 v -1 h 2 v -1 h 1 v -1 h 2 v -1 h 2 v -1 h 2 v -1 h 1 v -1 h 2 v -1 h 2 v -1 h 2 v -1 h 1 v -1 h 2 v -1 h 2 v -1 h 1 v -1 h 2 v -1 h 2 v -1 h 2 v -1 h 1 v -1 h 2 v -1 h 1 v -1 h 1 v -1 h 1 v -1 h 1 v -1 h 1 v -1 h 1 v -2 h 1 v -2 h 1 v -3 h 1 v -414 h -1 v -3 h -1 v -2 h -1 v -2 h -1 v -1 h -1 v -1 h -1 v -1 h -1 v -1 h -1 v -1 h -1 v -1 h -2 v -1 h -1 v -1 h -2 v -1 h -2 v -1 h -2 v -1 h -1 v -1 h -2 v -1 h -2 v -1 h -2 v -1 h -1 v -1 h -2 v -1 h -2 v -1 h -1 v -1 h -2 v -1 h -2 v -1 h -2 v -1 h -1 v -1 h -2 v -1 h -2 v -1 h -2 v -1 h -1 v -1 h -2 v -1 h -2 v -1 h -1 v -1 h -2 v -1 h -2 v -1 h -2 v -1 h -1 v -1 h -2 v -1 h -2 v -1 h -2 v -1 h -1 v -1 h -2 v -1 h -2 v -1 h -2 v -1 h -1 v -1 h -2 v -1 h -2 v -1 h -1 v -1 h -2 v -1 h -2 v -1 h -2 v -1 h -1 v -1 h -2 v -1 h -2 v -1 h -2 v -1 h -1 v -1 h -2 v -1 h -2 v -1 h -2 v -1 h -1 v -1 h -2 v -1 h -2 v -1 h -1 v -1 h -2 v -1 h -2 v -1 h -2 v -1 h -1 v -1 h -2 v -1 h -2 v -1 h -2 v -1 h -1 v -1 h -2 v -1 h -2 v -1 h -2 v -1 h -1 v -1 h -2 v -1 h -2 v -1 h -1 v -1 h -2 v -1 h -2 v -1 h -2 v -1 h -1 v -1 h -2 v -1 h -2 v -1 h -2 v -1 h -1 v -1 h -2 v -1 h -2 v -1 h -1 v -1 h -2 v -1 h -2 v -1 h -2 v -1 h -1 v -1 h -2 v -1 h -2 v -1 h -2 v -1 h -1 v -1 h -2 v -1 h -2 v -1 h -2 v -1 h -1 v -1 h -2 v -1 h -2 v -1 h -1 v -1 h -2 v -1 h -2 v -1 h -2 v -1 h -1 v -1 h -2 v -1 h -2 v -1 h -2 v -1 h -1 v -1 h -2 v -1 h -2 v -1 h -2 v -1 h -1 v -1 h -2 v -1 h -2 v -1 h -1 v -1 h -2 v -1 h -2 v -1 h -2 v -1 h -1 v -1 h -2 v -1 h -2 v -1 h -2 v -1 h -1 v -1 h -2 v -1 h -2 v -1 h -2 v -1 h -1 v -1 h -2 v -1 h -2 v -1 h -1 v -1 h -2 v -1 h -2 v -1 h -2 v -1 h -1 v -1 h -2 v -1 h -2 v -1 h -2 v -1 h -1 v -1 h -2 v -1 h -2 v -1 h -1 v -1 h -2 v -1 h -2 v -1 h -2 v -1 h -1 v -1 h -2 v -1 h -2 v -1 h -2 v -1 h -1 v -1 h -2 v -1 h -2 v -1 h -2 v -1 h -1 v -1 h -2 v -1 h -2 v -1 h -1 v -1 h -2 v -1 h -2 v -1 h -2 v -1 h -1 v -1 h -2 v -1 h -2 v -1 h -2 v -1 h -1 v -1 h -2 v -1 h -2 v -1 h -2 v -1 h -1 v -1 h -2 v -1 h -2 v -1 h -1 v -1 h -2 v -1 h -2 v -1 h -2 v -1 h -1 v -1 h -2 v -1 h -2 v -1 h -2 v -1 h -1 v -1 h -2 v -1 h -2 v -1 h -2 v -1 h -1 v -1 h -2 v -1 h -2 v -1 h -1 v -1 h -2 v -1 h -2 v -1 h -2 v -1 h -1 v -1 h -2 v -1 h -2 v -1 h -2 v -1 h -1 v -1 h -2 v -1 h -2 v -1 h -1 v -1 h -2 v -1 h -2 v -1 h -2 v -1 h -1 v -1 h -2 v -1 h -2 v -1 h -2 v -1 h -1 v -1 h -2 v -1 h -2 v -1 h -2 v -1 h -3 v -1 z m -20,66 v -1 h 1 v 317 h -2 v -1 h -2 v -1 h -1 v -1 h -2 v -1 h -2 v -1 h -2 v -1 h -1 v -1 h -2 v -1 h -2 v -1 h -2 v -1 h -1 v -1 h -2 v -1 h -2 v -1 h -2 v -1 h -1 v -1 h -2 v -1 h -2 v -1 h -1 v -1 h -2 v -1 h -2 v -1 h -2 v -1 h -1 v -1 h -2 v -1 h -2 v -1 h -2 v -1 h -1 v -1 h -2 v -1 h -2 v -1 h -1 v -1 h -2 v -1 h -2 v -1 h -2 v -1 h -1 v -1 h -2 v -1 h -2 v -1 h -2 v -1 h -1 v -1 h -2 v -1 h -2 v -1 h -2 v -1 h -1 v -1 h -2 v -1 h -2 v -1 h -1 v -1 h -2 v -1 h -2 v -1 h -2 v -1 h -1 v -1 h -2 v -1 h -2 v -1 h -2 v -1 h -1 v -1 h -2 v -1 h -2 v -1 h -2 v -1 h -1 v -1 h -2 v -1 h -2 v -1 h -1 v -1 h -2 v -1 h -2 v -1 h -2 v -1 h -1 v -1 h -2 v -1 h -2 v -1 h -2 v -1 h -1 v -1 h -2 v -1 h -2 v -1 h -1 v -1 h -2 v -1 h -2 v -1 h -2 v -1 h -1 v -1 h -2 v -1 h -2 v -1 h -2 v -1 h -1 v -1 h -2 v -1 h -2 v -1 h -2 v -1 h -1 v -1 h -2 v -1 h -2 v -1 h -1 v -1 h -2 v -1 h -2 v -1 h -2 v -1 h -1 v -1 h -2 v -1 h -2 v -1 h -2 v -1 h -1 v -1 h -2 v -1 h -2 v -1 h -2 v -1 h -1 v -1 h -2 v -1 h -2 v -1 h -1 v -1 h -2 v -1 h -2 v -1 h -2 v -1 h -1 v -1 h -2 v -1 h -2 v -1 h -2 v -1 h -1 v -1 h -2 v -1 h -2 v -1 h -2 v -1 h -1 v -1 h -2 v -1 h -2 v -1 h -1 v -1 h -2 v -1 h -2 v -1 h -2 v -1 h -1 v -1 h -2 v -1 h -2 v -1 h -2 v -1 h -1 v -1 h -2 v -1 h -2 v -1 h -1 v -1 h -2 v -1 h -2 v -1 h -2 v -1 h -1 v -1 h -2 v -1 h -2 v -1 h -2 v -1 h -1 v -1 h -2 v -1 h -2 v -1 h -2 v -1 h -1 v -1 h -2 v -1 h -2 v -1 h -1 v -1 h -2 v -1 h -2 v -1 h -2 v -1 h -1 v -1 h -2 v -1 h -2 v -1 h -2 v -1 h -1 v -1 h -2 v -1 h -2 v -1 h -2 v -1 h -1 v -1 h -2 v -1 h -2 v -1 h -1 v -1 h -2 v -1 h -2 v -1 h -1 v -1 h 2 v -1 h 2 v -1 h 1 v -1 h 2 v -1 h 2 v -1 h 2 v -1 h 1 v -1 h 2 v -1 h 2 v -1 h 2 v -1 h 1 v -1 h 2 v -1 h 2 v -1 h 2 v -1 h 1 v -1 h 2 v -1 h 2 v -1 h 1 v -1 h 2 v -1 h 2 v -1 h 2 v -1 h 1 v -1 h 2 v -1 h 2 v -1 h 2 v -1 h 1 v -1 h 2 v -1 h 2 v -1 h 2 v -1 h 1 v -1 h 2 v -1 h 2 v -1 h 1 v -1 h 2 v -1 h 2 v -1 h 2 v -1 h 1 v -1 h 2 v -1 h 2 v -1 h 2 v -1 h 1 v -1 h 2 v -1 h 2 v -1 h 2 v -1 h 1 v -1 h 2 v -1 h 2 v -1 h 1 v -1 h 2 v -1 h 2 v -1 h 2 v -1 h 1 v -1 h 2 v -1 h 2 v -1 h 2 v -1 h 1 v -1 h 2 v -1 h 2 v -1 h 1 v -1 h 2 v -1 h 2 v -1 h 2 v -1 h 1 v -1 h 2 v -1 h 2 v -1 h 2 v -1 h 1 v -1 h 2 v -1 h 2 v -1 h 2 v -1 h 1 v -1 h 2 v -1 h 2 v -1 h 1 v -1 h 2 v -1 h 2 v -1 h 2 v -1 h 1 v -1 h 2 v -1 h 2 v -1 h 2 v -1 h 1 v -1 h 2 v -1 h 2 v -1 h 2 v -1 h 1 v -1 h 2 v -1 h 2 v -1 h 1 v -1 h 2 v -1 h 2 v -1 h 2 v -1 h 1 v -1 h 2 v -1 h 2 v -1 h 2 v -1 h 1 v -1 h 2 v -1 h 2 v -1 h 2 v -1 h 1 v -1 h 2 v -1 h 2 v -1 h 1 v -1 h 2 v -1 h 2 v -1 h 2 v -1 h 1 v -1 h 2 v -1 h 2 v -1 h 2 v -1 h 1 v -1 h 2 v -1 h 2 v -1 h 1 v -1 h 2 v -1 h 2 v -1 h 2 v -1 h 1 v -1 h 2 v -1 h 2 v -1 h 2 v -1 h 1 v -1 h 2 v -1 h 2 v -1 h 2 v -1 h 1 v -1 h 2 v -1 h 2 v -1 h 1 v -1 h 2 v -1 h 2 v -1 h 2 v -1 h 1 v -1 h 2 v -1 h 2 v -1 h 2 v -1 h 1 v -1 h 2 v -1 h 2 v -1 h 2 v -1 h 1 v -1 h 2 v -1 h 2 v -1 h 1 v -1 h 2 v -1 h 2 v -1 h 2 v -1 h 1 v -1 h 2 v -1 h 2 v -1 h 2 v -1 h 1 v -1 h 2 v -1 h 2 v -1 h 2 v -1 h 1 v -1 z m 49,0 v -1 h 1 v 1 h 2 v 1 h 2 v 1 h 1 v 1 h 2 v 1 h 2 v 1 h 1 v 1 h 2 v 1 h 2 v 1 h 2 v 1 h 1 v 1 h 2 v 1 h 2 v 1 h 2 v 1 h 1 v 1 h 2 v 1 h 2 v 1 h 2 v 1 h 1 v 1 h 2 v 1 h 2 v 1 h 1 v 1 h 2 v 1 h 2 v 1 h 2 v 1 h 1 v 1 h 2 v 1 h 2 v 1 h 2 v 1 h 1 v 1 h 2 v 1 h 2 v 1 h 2 v 1 h 1 v 1 h 2 v 1 h 2 v 1 h 1 v 1 h 2 v 1 h 2 v 1 h 2 v 1 h 1 v 1 h 2 v 1 h 2 v 1 h 2 v 1 h 1 v 1 h 2 v 1 h 2 v 1 h 2 v 1 h 1 v 1 h 2 v 1 h 2 v 1 h 1 v 1 h 2 v 1 h 2 v 1 h 2 v 1 h 1 v 1 h 2 v 1 h 2 v 1 h 2 v 1 h 1 v 1 h 2 v 1 h 2 v 1 h 1 v 1 h 2 v 1 h 2 v 1 h 2 v 1 h 1 v 1 h 2 v 1 h 2 v 1 h 2 v 1 h 1 v 1 h 2 v 1 h 2 v 1 h 2 v 1 h 1 v 1 h 2 v 1 h 2 v 1 h 1 v 1 h 2 v 1 h 2 v 1 h 2 v 1 h 1 v 1 h 2 v 1 h 2 v 1 h 2 v 1 h 1 v 1 h 2 v 1 h 2 v 1 h 2 v 1 h 1 v 1 h 2 v 1 h 2 v 1 h 1 v 1 h 2 v 1 h 2 v 1 h 2 v 1 h 1 v 1 h 2 v 1 h 2 v 1 h 2 v 1 h 1 v 1 h 2 v 1 h 2 v 1 h 2 v 1 h 1 v 1 h 2 v 1 h 2 v 1 h 1 v 1 h 2 v 1 h 2 v 1 h 2 v 1 h 1 v 1 h 2 v 1 h 2 v 1 h 2 v 1 h 1 v 1 h 2 v 1 h 2 v 1 h 1 v 1 h 2 v 1 h 2 v 1 h 2 v 1 h 1 v 1 h 2 v 1 h 2 v 1 h 2 v 1 h 1 v 1 h 2 v 1 h 2 v 1 h 2 v 1 h 1 v 1 h 2 v 1 h 2 v 1 h 1 v 1 h 2 v 1 h 2 v 1 h 2 v 1 h 1 v 1 h 2 v 1 h 2 v 1 h 2 v 1 h 1 v 1 h 2 v 1 h 2 v 1 h 2 v 1 h 1 v 1 h 2 v 1 h 2 v 1 h 1 v 1 h 2 v 1 h 2 v 1 h 2 v 1 h 1 v 1 h 2 v 1 h 2 v 1 h 2 v 1 h 1 v 1 h 2 v 1 h 2 v 1 h -1 v 1 h -2 v 1 h -1 v 1 h -2 v 1 h -2 v 1 h -2 v 1 h -1 v 1 h -2 v 1 h -2 v 1 h -2 v 1 h -1 v 1 h -2 v 1 h -2 v 1 h -2 v 1 h -1 v 1 h -2 v 1 h -2 v 1 h -1 v 1 h -2 v 1 h -2 v 1 h -2 v 1 h -1 v 1 h -2 v 1 h -2 v 1 h -2 v 1 h -1 v 1 h -2 v 1 h -2 v 1 h -2 v 1 h -1 v 1 h -2 v 1 h -2 v 1 h -1 v 1 h -2 v 1 h -2 v 1 h -2 v 1 h -1 v 1 h -2 v 1 h -2 v 1 h -2 v 1 h -1 v 1 h -2 v 1 h -2 v 1 h -1 v 1 h -2 v 1 h -2 v 1 h -2 v 1 h -1 v 1 h -2 v 1 h -2 v 1 h -2 v 1 h -1 v 1 h -2 v 1 h -2 v 1 h -2 v 1 h -1 v 1 h -2 v 1 h -2 v 1 h -1 v 1 h -2 v 1 h -2 v 1 h -2 v 1 h -1 v 1 h -2 v 1 h -2 v 1 h -2 v 1 h -1 v 1 h -2 v 1 h -2 v 1 h -2 v 1 h -1 v 1 h -2 v 1 h -2 v 1 h -1 v 1 h -2 v 1 h -2 v 1 h -2 v 1 h -1 v 1 h -2 v 1 h -2 v 1 h -2 v 1 h -1 v 1 h -2 v 1 h -2 v 1 h -1 v 1 h -2 v 1 h -2 v 1 h -2 v 1 h -1 v 1 h -2 v 1 h -2 v 1 h -2 v 1 h -1 v 1 h -2 v 1 h -2 v 1 h -2 v 1 h -1 v 1 h -2 v 1 h -2 v 1 h -1 v 1 h -2 v 1 h -2 v 1 h -2 v 1 h -1 v 1 h -2 v 1 h -2 v 1 h -2 v 1 h -1 v 1 h -2 v 1 h -2 v 1 h -2 v 1 h -1 v 1 h -2 v 1 h -2 v 1 h -1 v 1 h -2 v 1 h -2 v 1 h -2 v 1 h -1 v 1 h -2 v 1 h -2 v 1 h -2 v 1 h -1 v 1 h -2 v 1 h -2 v 1 h -2 v 1 h -1 v 1 h -2 v 1 h -2 v 1 h -1 v 1 h -2 v 1 h -2 v 1 h -2 v 1 h -1 v 1 h -2 v 1 h -2 v 1 h -2 v 1 h -1 v 1 h -2 v 1 h -2 v 1 h -1 v 1 h -2 v 1 h -2 v 1 h -2 v 1 h -1 v 1 h -2 v 1 h -2 v 1 h -2 v 1 h -1 v 1 h -2 v 1 h -2 v 1 h -2 v 1 h -1 v 1 h -2 v 1 h -2 v 1 h -1 v 1 h -2 v 1 h -2 v 1 h -2 z m 298,200 v -1 h 1 v 318 h -1 v -1 h -2 v -1 h -1 v -1 h -2 v -1 h -2 v -1 h -1 v -1 h -2 v -1 h -2 v -1 h -2 v -1 h -1 v -1 h -2 v -1 h -2 v -1 h -2 v -1 h -1 v -1 h -2 v -1 h -2 v -1 h -2 v -1 h -1 v -1 h -2 v -1 h -2 v -1 h -1 v -1 h -2 v -1 h -2 v -1 h -2 v -1 h -1 v -1 h -2 v -1 h -2 v -1 h -2 v -1 h -1 v -1 h -2 v -1 h -2 v -1 h -2 v -1 h -1 v -1 h -2 v -1 h -2 v -1 h -1 v -1 h -2 v -1 h -2 v -1 h -2 v -1 h -1 v -1 h -2 v -1 h -2 v -1 h -2 v -1 h -1 v -1 h -2 v -1 h -2 v -1 h -2 v -1 h -1 v -1 h -2 v -1 h -2 v -1 h -1 v -1 h -2 v -1 h -2 v -1 h -2 v -1 h -1 v -1 h -2 v -1 h -2 v -1 h -2 v -1 h -1 v -1 h -2 v -1 h -2 v -1 h -1 v -1 h -2 v -1 h -2 v -1 h -2 v -1 h -1 v -1 h -2 v -1 h -2 v -1 h -2 v -1 h -1 v -1 h -2 v -1 h -2 v -1 h -2 v -1 h -1 v -1 h -2 v -1 h -2 v -1 h -1 v -1 h -2 v -1 h -2 v -1 h -2 v -1 h -1 v -1 h -2 v -1 h -2 v -1 h -2 v -1 h -1 v -1 h -2 v -1 h -2 v -1 h -2 v -1 h -1 v -1 h -2 v -1 h -2 v -1 h -1 v -1 h -2 v -1 h -2 v -1 h -2 v -1 h -1 v -1 h -2 v -1 h -2 v -1 h -2 v -1 h -1 v -1 h -2 v -1 h -2 v -1 h -2 v -1 h -1 v -1 h -2 v -1 h -2 v -1 h -1 v -1 h -2 v -1 h -2 v -1 h -2 v -1 h -1 v -1 h -2 v -1 h -2 v -1 h -2 v -1 h -1 v -1 h -2 v -1 h -2 v -1 h -1 v -1 h -2 v -1 h -2 v -1 h -2 v -1 h -1 v -1 h -2 v -1 h -2 v -1 h -2 v -1 h -1 v -1 h -2 v -1 h -2 v -1 h -2 v -1 h -1 v -1 h -2 v -1 h -2 v -1 h -1 v -1 h -2 v -1 h -2 v -1 h -2 v -1 h -1 v -1 h -2 v -1 h -2 v -1 h -2 v -1 h -1 v -1 h -2 v -1 h -2 v -1 h -2 v -1 h -1 v -1 h -2 v -1 h -2 v -1 h -1 v -1 h -2 v -1 h -2 v -1 h -2 v -1 h -1 v -1 h -2 v -1 h -2 v -1 h -2 v -1 h -1 v -1 h -2 v -1 h -2 v -1 h -2 v -1 h 1 v -1 h 1 v -1 h 2 v -1 h 2 v -1 h 1 v -1 h 2 v -1 h 2 v -1 h 2 v -1 h 1 v -1 h 2 v -1 h 2 v -1 h 2 v -1 h 1 v -1 h 2 v -1 h 2 v -1 h 2 v -1 h 1 v -1 h 2 v -1 h 2 v -1 h 1 v -1 h 2 v -1 h 2 v -1 h 2 v -1 h 1 v -1 h 2 v -1 h 2 v -1 h 2 v -1 h 1 v -1 h 2 v -1 h 2 v -1 h 1 v -1 h 2 v -1 h 2 v -1 h 2 v -1 h 1 v -1 h 2 v -1 h 2 v -1 h 2 v -1 h 1 v -1 h 2 v -1 h 2 v -1 h 2 v -1 h 1 v -1 h 2 v -1 h 2 v -1 h 1 v -1 h 2 v -1 h 2 v -1 h 2 v -1 h 1 v -1 h 2 v -1 h 2 v -1 h 2 v -1 h 1 v -1 h 2 v -1 h 2 v -1 h 2 v -1 h 1 v -1 h 2 v -1 h 2 v -1 h 1 v -1 h 2 v -1 h 2 v -1 h 2 v -1 h 1 v -1 h 2 v -1 h 2 v -1 h 2 v -1 h 1 v -1 h 2 v -1 h 2 v -1 h 2 v -1 h 1 v -1 h 2 v -1 h 2 v -1 h 1 v -1 h 2 v -1 h 2 v -1 h 2 v -1 h 1 v -1 h 2 v -1 h 2 v -1 h 2 v -1 h 1 v -1 h 2 v -1 h 2 v -1 h 1 v -1 h 2 v -1 h 2 v -1 h 2 v -1 h 1 v -1 h 2 v -1 h 2 v -1 h 2 v -1 h 1 v -1 h 2 v -1 h 2 v -1 h 2 v -1 h 1 v -1 h 2 v -1 h 2 v -1 h 1 v -1 h 2 v -1 h 2 v -1 h 2 v -1 h 1 v -1 h 2 v -1 h 2 v -1 h 2 v -1 h 1 v -1 h 2 v -1 h 2 v -1 h 2 v -1 h 1 v -1 h 2 v -1 h 2 v -1 h 1 v -1 h 2 v -1 h 2 v -1 h 2 v -1 h 1 v -1 h 2 v -1 h 2 v -1 h 2 v -1 h 1 v -1 h 2 v -1 h 2 v -1 h 2 v -1 h 1 v -1 h 2 v -1 h 2 v -1 h 1 v -1 h 2 v -1 h 2 v -1 h 2 v -1 h 1 v -1 h 2 v -1 h 2 v -1 h 2 v -1 h 1 v -1 h 2 v -1 h 2 v -1 h 1 v -1 h 2 v -1 h 2 v -1 h 2 v -1 h 1 v -1 h 2 v -1 h 2 v -1 h 2 v -1 h 1 v -1 h 2 v -1 h 2 v -1 h 2 v -1 h 1 v -1 h 2 v -1 h 2 v -1 h 1 v -1 z m -348,201 v -1 h 2 v 317 h -1 v -1 h -2 v -1 h -2 v -1 h -1 v -1 h -2 v -1 h -2 v -1 h -1 v -1 h -2 v -1 h -2 v -1 h -2 v -1 h -1 v -1 h -2 v -1 h -2 v -1 h -2 v -1 h -1 v -1 h -2 v -1 h -2 v -1 h -1 v -1 h -2 v -1 h -2 v -1 h -2 v -1 h -1 v -1 h -2 v -1 h -2 v -1 h -2 v -1 h -1 v -1 h -2 v -1 h -2 v -1 h -2 v -1 h -1 v -1 h -2 v -1 h -2 v -1 h -1 v -1 h -2 v -1 h -2 v -1 h -2 v -1 h -1 v -1 h -2 v -1 h -2 v -1 h -2 v -1 h -1 v -1 h -2 v -1 h -2 v -1 h -2 v -1 h -1 v -1 h -2 v -1 h -2 v -1 h -1 v -1 h -2 v -1 h -2 v -1 h -2 v -1 h -1 v -1 h -2 v -1 h -2 v -1 h -2 v -1 h -1 v -1 h -2 v -1 h -2 v -1 h -2 v -1 h -1 v -1 h -2 v -1 h -2 v -1 h -1 v -1 h -2 v -1 h -2 v -1 h -2 v -1 h -1 v -1 h -2 v -1 h -2 v -1 h -2 v -1 h -1 v -1 h -2 v -1 h -2 v -1 h -1 v -1 h -2 v -1 h -2 v -1 h -2 v -1 h -1 v -1 h -2 v -1 h -2 v -1 h -2 v -1 h -1 v -1 h -2 v -1 h -2 v -1 h -2 v -1 h -1 v -1 h -2 v -1 h -2 v -1 h -1 v -1 h -2 v -1 h -2 v -1 h -2 v -1 h -1 v -1 h -2 v -1 h -2 v -1 h -2 v -1 h -1 v -1 h -2 v -1 h -2 v -1 h -2 v -1 h -1 v -1 h -2 v -1 h -2 v -1 h -1 v -1 h -2 v -1 h -2 v -1 h -2 v -1 h -1 v -1 h -2 v -1 h -2 v -1 h -2 v -1 h -1 v -1 h -2 v -1 h -2 v -1 h -2 v -1 h -1 v -1 h -2 v -1 h -2 v -1 h -1 v -1 h -2 v -1 h -2 v -1 h -2 v -1 h -1 v -1 h -2 v -1 h -2 v -1 h -2 v -1 h -1 v -1 h -2 v -1 h -2 v -1 h -1 v -1 h -2 v -1 h -2 v -1 h -2 v -1 h -1 v -1 h -2 v -1 h -2 v -1 h -2 v -1 h -1 v -1 h -2 v -1 h -2 v -1 h -2 v -1 h -1 v -1 h -2 v -1 h -2 v -1 h -1 v -1 h -2 v -1 h -2 v -1 h -2 v -1 h -1 v -1 h -2 v -1 h -2 v -1 h -2 v -1 h -1 v -1 h -2 v -1 h -2 v -1 h -2 v -1 h -1 v -1 h -2 v -1 h -2 v -1 h 1 v -1 h 2 v -1 h 2 v -1 h 1 v -1 h 2 v -1 h 2 v -1 h 2 v -1 h 1 v -1 h 2 v -1 h 2 v -1 h 1 v -1 h 2 v -1 h 2 v -1 h 2 v -1 h 1 v -1 h 2 v -1 h 2 v -1 h 2 v -1 h 1 v -1 h 2 v -1 h 2 v -1 h 1 v -1 h 2 v -1 h 2 v -1 h 2 v -1 h 1 v -1 h 2 v -1 h 2 v -1 h 2 v -1 h 1 v -1 h 2 v -1 h 2 v -1 h 2 v -1 h 1 v -1 h 2 v -1 h 2 v -1 h 1 v -1 h 2 v -1 h 2 v -1 h 2 v -1 h 1 v -1 h 2 v -1 h 2 v -1 h 2 v -1 h 1 v -1 h 2 v -1 h 2 v -1 h 2 v -1 h 1 v -1 h 2 v -1 h 2 v -1 h 1 v -1 h 2 v -1 h 2 v -1 h 2 v -1 h 1 v -1 h 2 v -1 h 2 v -1 h 2 v -1 h 1 v -1 h 2 v -1 h 2 v -1 h 2 v -1 h 1 v -1 h 2 v -1 h 2 v -1 h 1 v -1 h 2 v -1 h 2 v -1 h 2 v -1 h 1 v -1 h 2 v -1 h 2 v -1 h 2 v -1 h 1 v -1 h 2 v -1 h 2 v -1 h 1 v -1 h 2 v -1 h 2 v -1 h 2 v -1 h 1 v -1 h 2 v -1 h 2 v -1 h 2 v -1 h 1 v -1 h 2 v -1 h 2 v -1 h 2 v -1 h 1 v -1 h 2 v -1 h 2 v -1 h 1 v -1 h 2 v -1 h 2 v -1 h 2 v -1 h 1 v -1 h 2 v -1 h 2 v -1 h 2 v -1 h 1 v -1 h 2 v -1 h 2 v -1 h 2 v -1 h 1 v -1 h 2 v -1 h 2 v -1 h 1 v -1 h 2 v -1 h 2 v -1 h 2 v -1 h 1 v -1 h 2 v -1 h 2 v -1 h 2 v -1 h 1 v -1 h 2 v -1 h 2 v -1 h 1 v -1 h 2 v -1 h 2 v -1 h 2 v -1 h 1 v -1 h 2 v -1 h 2 v -1 h 2 v -1 h 1 v -1 h 2 v -1 h 2 v -1 h 2 v -1 h 1 v -1 h 2 v -1 h 2 v -1 h 1 v -1 h 2 v -1 h 2 v -1 h 2 v -1 h 1 v -1 h 2 v -1 h 2 v -1 h 2 v -1 h 1 v -1 h 2 v -1 h 2 v -1 h 2 v -1 h 1 v -1 h 2 v -1 h 2 v -1 h 1 v -1 h 2 v -1 h 2 v -1 h 2 v -1 h 1 v -1 h 2 v -1 h 2 v -1 h 2 v -1 h 1 v -1 z m 50,0 v -1 h 2 v 1 h 2 v 1 h 2 v 1 h 1 v 1 h 2 v 1 h 2 v 1 h 1 v 1 h 2 v 1 h 2 v 1 h 2 v 1 h 1 v 1 h 2 v 1 h 2 v 1 h 2 v 1 h 1 v 1 h 2 v 1 h 2 v 1 h 1 v 1 h 2 v 1 h 2 v 1 h 2 v 1 h 1 v 1 h 2 v 1 h 2 v 1 h 2 v 1 h 1 v 1 h 2 v 1 h 2 v 1 h 2 v 1 h 1 v 1 h 2 v 1 h 2 v 1 h 1 v 1 h 2 v 1 h 2 v 1 h 2 v 1 h 1 v 1 h 2 v 1 h 2 v 1 h 2 v 1 h 1 v 1 h 2 v 1 h 2 v 1 h 2 v 1 h 1 v 1 h 2 v 1 h 2 v 1 h 1 v 1 h 2 v 1 h 2 v 1 h 2 v 1 h 1 v 1 h 2 v 1 h 2 v 1 h 2 v 1 h 1 v 1 h 2 v 1 h 2 v 1 h 1 v 1 h 2 v 1 h 2 v 1 h 2 v 1 h 1 v 1 h 2 v 1 h 2 v 1 h 2 v 1 h 1 v 1 h 2 v 1 h 2 v 1 h 2 v 1 h 1 v 1 h 2 v 1 h 2 v 1 h 1 v 1 h 2 v 1 h 2 v 1 h 2 v 1 h 1 v 1 h 2 v 1 h 2 v 1 h 2 v 1 h 1 v 1 h 2 v 1 h 2 v 1 h 2 v 1 h 1 v 1 h 2 v 1 h 2 v 1 h 1 v 1 h 2 v 1 h 2 v 1 h 2 v 1 h 1 v 1 h 2 v 1 h 2 v 1 h 2 v 1 h 1 v 1 h 2 v 1 h 2 v 1 h 2 v 1 h 1 v 1 h 2 v 1 h 2 v 1 h 1 v 1 h 2 v 1 h 2 v 1 h 2 v 1 h 1 v 1 h 2 v 1 h 2 v 1 h 2 v 1 h 1 v 1 h 2 v 1 h 2 v 1 h 1 v 1 h 2 v 1 h 2 v 1 h 2 v 1 h 1 v 1 h 2 v 1 h 2 v 1 h 2 v 1 h 1 v 1 h 2 v 1 h 2 v 1 h 2 v 1 h 1 v 1 h 2 v 1 h 2 v 1 h 1 v 1 h 2 v 1 h 2 v 1 h 2 v 1 h 1 v 1 h 2 v 1 h 2 v 1 h 2 v 1 h 1 v 1 h 2 v 1 h 2 v 1 h 2 v 1 h 1 v 1 h 2 v 1 h 2 v 1 h 1 v 1 h 2 v 1 h 2 v 1 h 2 v 1 h 1 v 1 h 2 v 1 h 2 v 1 h 2 v 1 h 1 v 1 h 2 v 1 h 2 v 1 h 2 v 1 h 1 v 1 h 2 v 1 h 1 v 1 h -2 v 1 h -2 v 1 h -1 v 1 h -2 v 1 h -2 v 1 h -2 v 1 h -1 v 1 h -2 v 1 h -2 v 1 h -2 v 1 h -1 v 1 h -2 v 1 h -2 v 1 h -1 v 1 h -2 v 1 h -2 v 1 h -2 v 1 h -1 v 1 h -2 v 1 h -2 v 1 h -2 v 1 h -1 v 1 h -2 v 1 h -2 v 1 h -1 v 1 h -2 v 1 h -2 v 1 h -2 v 1 h -1 v 1 h -2 v 1 h -2 v 1 h -2 v 1 h -1 v 1 h -2 v 1 h -2 v 1 h -2 v 1 h -1 v 1 h -2 v 1 h -2 v 1 h -1 v 1 h -2 v 1 h -2 v 1 h -2 v 1 h -1 v 1 h -2 v 1 h -2 v 1 h -2 v 1 h -1 v 1 h -2 v 1 h -2 v 1 h -2 v 1 h -1 v 1 h -2 v 1 h -2 v 1 h -1 v 1 h -2 v 1 h -2 v 1 h -2 v 1 h -1 v 1 h -2 v 1 h -2 v 1 h -2 v 1 h -1 v 1 h -2 v 1 h -2 v 1 h -2 v 1 h -1 v 1 h -2 v 1 h -2 v 1 h -1 v 1 h -2 v 1 h -2 v 1 h -2 v 1 h -1 v 1 h -2 v 1 h -2 v 1 h -2 v 1 h -1 v 1 h -2 v 1 h -2 v 1 h -1 v 1 h -2 v 1 h -2 v 1 h -2 v 1 h -1 v 1 h -2 v 1 h -2 v 1 h -2 v 1 h -1 v 1 h -2 v 1 h -2 v 1 h -2 v 1 h -1 v 1 h -2 v 1 h -2 v 1 h -1 v 1 h -2 v 1 h -2 v 1 h -2 v 1 h -1 v 1 h -2 v 1 h -2 v 1 h -2 v 1 h -1 v 1 h -2 v 1 h -2 v 1 h -2 v 1 h -1 v 1 h -2 v 1 h -2 v 1 h -1 v 1 h -2 v 1 h -2 v 1 h -2 v 1 h -1 v 1 h -2 v 1 h -2 v 1 h -2 v 1 h -1 v 1 h -2 v 1 h -2 v 1 h -2 v 1 h -1 v 1 h -2 v 1 h -2 v 1 h -1 v 1 h -2 v 1 h -2 v 1 h -2 v 1 h -1 v 1 h -2 v 1 h -2 v 1 h -2 v 1 h -1 v 1 h -2 v 1 h -2 v 1 h -1 v 1 h -2 v 1 h -2 v 1 h -2 v 1 h -1 v 1 h -2 v 1 h -2 v 1 h -2 v 1 h -1 v 1 h -2 v 1 h -2 v 1 h -2 v 1 h -1 v 1 h -2 v 1 h -2 v 1 h -1 v 1 h -2 v 1 h -2 v 1 h -2 v 1 h -1 v 1 h -2 v 1 h -2 v 1 h -1 z m -347,200 v -1 h 2 v 1 h 2 v 1 h 1 v 1 h 2 v 1 h 2 v 1 h 1 v 1 h 2 v 1 h 2 v 1 h 2 v 1 h 1 v 1 h 2 v 1 h 2 v 1 h 2 v 1 h 1 v 1 h 2 v 1 h 2 v 1 h 2 v 1 h 1 v 1 h 2 v 1 h 2 v 1 h 1 v 1 h 2 v 1 h 2 v 1 h 2 v 1 h 1 v 1 h 2 v 1 h 2 v 1 h 2 v 1 h 1 v 1 h 2 v 1 h 2 v 1 h 2 v 1 h 1 v 1 h 2 v 1 h 2 v 1 h 1 v 1 h 2 v 1 h 2 v 1 h 2 v 1 h 1 v 1 h 2 v 1 h 2 v 1 h 2 v 1 h 1 v 1 h 2 v 1 h 2 v 1 h 1 v 1 h 2 v 1 h 2 v 1 h 2 v 1 h 1 v 1 h 2 v 1 h 2 v 1 h 2 v 1 h 1 v 1 h 2 v 1 h 2 v 1 h 2 v 1 h 1 v 1 h 2 v 1 h 2 v 1 h 1 v 1 h 2 v 1 h 2 v 1 h 2 v 1 h 1 v 1 h 2 v 1 h 2 v 1 h 2 v 1 h 1 v 1 h 2 v 1 h 2 v 1 h 2 v 1 h 1 v 1 h 2 v 1 h 2 v 1 h 1 v 1 h 2 v 1 h 2 v 1 h 2 v 1 h 1 v 1 h 2 v 1 h 2 v 1 h 2 v 1 h 1 v 1 h 2 v 1 h 2 v 1 h 2 v 1 h 1 v 1 h 2 v 1 h 2 v 1 h 1 v 1 h 2 v 1 h 2 v 1 h 2 v 1 h 1 v 1 h 2 v 1 h 2 v 1 h 2 v 1 h 1 v 1 h 2 v 1 h 2 v 1 h 1 v 1 h 2 v 1 h 2 v 1 h 2 v 1 h 1 v 1 h 2 v 1 h 2 v 1 h 2 v 1 h 1 v 1 h 2 v 1 h 2 v 1 h 2 v 1 h 1 v 1 h 2 v 1 h 2 v 1 h 1 v 1 h 2 v 1 h 2 v 1 h 2 v 1 h 1 v 1 h 2 v 1 h 2 v 1 h 2 v 1 h 1 v 1 h 2 v 1 h 2 v 1 h 2 v 1 h 1 v 1 h 2 v 1 h 2 v 1 h 1 v 1 h 2 v 1 h 2 v 1 h 2 v 1 h 1 v 1 h 2 v 1 h 2 v 1 h 2 v 1 h 1 v 1 h 2 v 1 h 2 v 1 h 2 v 1 h 1 v 1 h 2 v 1 h 2 v 1 h 1 v 1 h 2 v 1 h 2 v 1 h 2 v 1 h 1 v 1 h 2 v 1 h 2 v 1 h 2 v 1 h 1 v 1 h 2 v 1 h 2 v 1 h 1 v 1 h -1 v 1 h -2 v 1 h -2 v 1 h -2 v 1 h -1 v 1 h -2 v 1 h -2 v 1 h -1 v 1 h -2 v 1 h -2 v 1 h -2 v 1 h -1 v 1 h -2 v 1 h -2 v 1 h -2 v 1 h -1 v 1 h -2 v 1 h -2 v 1 h -2 v 1 h -1 v 1 h -2 v 1 h -2 v 1 h -1 v 1 h -2 v 1 h -2 v 1 h -2 v 1 h -1 v 1 h -2 v 1 h -2 v 1 h -2 v 1 h -1 v 1 h -2 v 1 h -2 v 1 h -1 v 1 h -2 v 1 h -2 v 1 h -2 v 1 h -1 v 1 h -2 v 1 h -2 v 1 h -2 v 1 h -1 v 1 h -2 v 1 h -2 v 1 h -2 v 1 h -1 v 1 h -2 v 1 h -2 v 1 h -1 v 1 h -2 v 1 h -2 v 1 h -2 v 1 h -1 v 1 h -2 v 1 h -2 v 1 h -2 v 1 h -1 v 1 h -2 v 1 h -2 v 1 h -2 v 1 h -1 v 1 h -2 v 1 h -2 v 1 h -1 v 1 h -2 v 1 h -2 v 1 h -2 v 1 h -1 v 1 h -2 v 1 h -2 v 1 h -2 v 1 h -1 v 1 h -2 v 1 h -2 v 1 h -2 v 1 h -1 v 1 h -2 v 1 h -2 v 1 h -1 v 1 h -2 v 1 h -2 v 1 h -2 v 1 h -1 v 1 h -2 v 1 h -2 v 1 h -2 v 1 h -1 v 1 h -2 v 1 h -2 v 1 h -1 v 1 h -2 v 1 h -2 v 1 h -2 v 1 h -1 v 1 h -2 v 1 h -2 v 1 h -2 v 1 h -1 v 1 h -2 v 1 h -2 v 1 h -2 v 1 h -1 v 1 h -2 v 1 h -2 v 1 h -1 v 1 h -2 v 1 h -2 v 1 h -2 v 1 h -1 v 1 h -2 v 1 h -2 v 1 h -2 v 1 h -1 v 1 h -2 v 1 h -2 v 1 h -2 v 1 h -1 v 1 h -2 v 1 h -2 v 1 h -1 v 1 h -2 v 1 h -2 v 1 h -2 v 1 h -1 v 1 h -2 v 1 h -2 v 1 h -2 v 1 h -1 v 1 h -2 v 1 h -2 v 1 h -2 v 1 h -1 v 1 h -2 v 1 h -2 v 1 h -1 v 1 h -2 v 1 h -2 v 1 h -2 v 1 h -1 v 1 h -2 v 1 h -2 v 1 h -2 v 1 h -1 v 1 h -2 v 1 h -2 v 1 h -1 v 1 h -2 v 1 h -2 v 1 h -2 v 1 h -1 v 1 h -2 v 1 h -2 v 1 h -2 v 1 h -1 v 1 h -2 v 1 h -2 v 1 h -2 v 1 h -1 v 1 h -2 z m 298,200 v -1 h 1 v 317 h -2 v -1 h -2 v -1 h -1 v -1 h -2 v -1 h -2 v -1 h -2 v -1 h -1 v -1 h -2 v -1 h -2 v -1 h -1 v -1 h -2 v -1 h -2 v -1 h -2 v -1 h -1 v -1 h -2 v -1 h -2 v -1 h -2 v -1 h -1 v -1 h -2 v -1 h -2 v -1 h -2 v -1 h -1 v -1 h -2 v -1 h -2 v -1 h -1 v -1 h -2 v -1 h -2 v -1 h -2 v -1 h -1 v -1 h -2 v -1 h -2 v -1 h -2 v -1 h -1 v -1 h -2 v -1 h -2 v -1 h -1 v -1 h -2 v -1 h -2 v -1 h -2 v -1 h -1 v -1 h -2 v -1 h -2 v -1 h -2 v -1 h -1 v -1 h -2 v -1 h -2 v -1 h -2 v -1 h -1 v -1 h -2 v -1 h -2 v -1 h -1 v -1 h -2 v -1 h -2 v -1 h -2 v -1 h -1 v -1 h -2 v -1 h -2 v -1 h -2 v -1 h -1 v -1 h -2 v -1 h -2 v -1 h -2 v -1 h -1 v -1 h -2 v -1 h -2 v -1 h -1 v -1 h -2 v -1 h -2 v -1 h -2 v -1 h -1 v -1 h -2 v -1 h -2 v -1 h -2 v -1 h -1 v -1 h -2 v -1 h -2 v -1 h -1 v -1 h -2 v -1 h -2 v -1 h -2 v -1 h -1 v -1 h -2 v -1 h -2 v -1 h -2 v -1 h -1 v -1 h -2 v -1 h -2 v -1 h -2 v -1 h -1 v -1 h -2 v -1 h -2 v -1 h -1 v -1 h -2 v -1 h -2 v -1 h -2 v -1 h -1 v -1 h -2 v -1 h -2 v -1 h -2 v -1 h -1 v -1 h -2 v -1 h -2 v -1 h -2 v -1 h -1 v -1 h -2 v -1 h -2 v -1 h -1 v -1 h -2 v -1 h -2 v -1 h -2 v -1 h -1 v -1 h -2 v -1 h -2 v -1 h -2 v -1 h -1 v -1 h -2 v -1 h -2 v -1 h -2 v -1 h -1 v -1 h -2 v -1 h -2 v -1 h -1 v -1 h -2 v -1 h -2 v -1 h -2 v -1 h -1 v -1 h -2 v -1 h -2 v -1 h -2 v -1 h -1 v -1 h -2 v -1 h -2 v -1 h -1 v -1 h -2 v -1 h -2 v -1 h -2 v -1 h -1 v -1 h -2 v -1 h -2 v -1 h -2 v -1 h -1 v -1 h -2 v -1 h -2 v -1 h -2 v -1 h -1 v -1 h -2 v -1 h -2 v -1 h -1 v -1 h -2 v -1 h -2 v -1 h -2 v -1 h -1 v -1 h -2 v -1 h -2 v -1 h -2 v -1 h -1 v -1 h -2 v -1 h -2 v -1 h -1 v -1 h 2 v -1 h 2 v -1 h 1 v -1 h 2 v -1 h 2 v -1 h 2 v -1 h 1 v -1 h 2 v -1 h 2 v -1 h 2 v -1 h 1 v -1 h 2 v -1 h 2 v -1 h 1 v -1 h 2 v -1 h 2 v -1 h 2 v -1 h 1 v -1 h 2 v -1 h 2 v -1 h 2 v -1 h 1 v -1 h 2 v -1 h 2 v -1 h 1 v -1 h 2 v -1 h 2 v -1 h 2 v -1 h 1 v -1 h 2 v -1 h 2 v -1 h 2 v -1 h 1 v -1 h 2 v -1 h 2 v -1 h 2 v -1 h 1 v -1 h 2 v -1 h 2 v -1 h 1 v -1 h 2 v -1 h 2 v -1 h 2 v -1 h 1 v -1 h 2 v -1 h 2 v -1 h 2 v -1 h 1 v -1 h 2 v -1 h 2 v -1 h 2 v -1 h 1 v -1 h 2 v -1 h 2 v -1 h 1 v -1 h 2 v -1 h 2 v -1 h 2 v -1 h 1 v -1 h 2 v -1 h 2 v -1 h 2 v -1 h 1 v -1 h 2 v -1 h 2 v -1 h 2 v -1 h 1 v -1 h 2 v -1 h 2 v -1 h 1 v -1 h 2 v -1 h 2 v -1 h 2 v -1 h 1 v -1 h 2 v -1 h 2 v -1 h 2 v -1 h 1 v -1 h 2 v -1 h 2 v -1 h 1 v -1 h 2 v -1 h 2 v -1 h 2 v -1 h 1 v -1 h 2 v -1 h 2 v -1 h 2 v -1 h 1 v -1 h 2 v -1 h 2 v -1 h 2 v -1 h 1 v -1 h 2 v -1 h 2 v -1 h 1 v -1 h 2 v -1 h 2 v -1 h 2 v -1 h 1 v -1 h 2 v -1 h 2 v -1 h 2 v -1 h 1 v -1 h 2 v -1 h 2 v -1 h 2 v -1 h 1 v -1 h 2 v -1 h 2 v -1 h 1 v -1 h 2 v -1 h 2 v -1 h 2 v -1 h 1 v -1 h 2 v -1 h 2 v -1 h 2 v -1 h 1 v -1 h 2 v -1 h 2 v -1 h 2 v -1 h 1 v -1 h 2 v -1 h 2 v -1 h 1 v -1 h 2 v -1 h 2 v -1 h 2 v -1 h 1 v -1 h 2 v -1 h 2 v -1 h 2 v -1 h 1 v -1 h 2 v -1 h 2 v -1 h 1 v -1 h 2 v -1 h 2 v -1 h 2 v -1 h 1 v -1 h 2 v -1 h 2 v -1 h 2 v -1 h 1 v -1 h 2 v -1 h 2 v -1 h 2 v -1 h 1 v -1 h 2 v -1 h 2 v -1 h 1 v -1 h 2 v -1 h 2 v -1 h 2 v -1 h 1 v -1 h 2 v -1 z m 49,0 v -1 h 1 v 1 h 2 v 1 h 2 v 1 h 1 v 1 h 2 v 1 h 2 v 1 h 2 v 1 h 1 v 1 h 2 v 1 h 2 v 1 h 2 v 1 h 1 v 1 h 2 v 1 h 2 v 1 h 1 v 1 h 2 v 1 h 2 v 1 h 2 v 1 h 1 v 1 h 2 v 1 h 2 v 1 h 2 v 1 h 1 v 1 h 2 v 1 h 2 v 1 h 2 v 1 h 1 v 1 h 2 v 1 h 2 v 1 h 1 v 1 h 2 v 1 h 2 v 1 h 2 v 1 h 1 v 1 h 2 v 1 h 2 v 1 h 2 v 1 h 1 v 1 h 2 v 1 h 2 v 1 h 2 v 1 h 1 v 1 h 2 v 1 h 2 v 1 h 1 v 1 h 2 v 1 h 2 v 1 h 2 v 1 h 1 v 1 h 2 v 1 h 2 v 1 h 2 v 1 h 1 v 1 h 2 v 1 h 2 v 1 h 1 v 1 h 2 v 1 h 2 v 1 h 2 v 1 h 1 v 1 h 2 v 1 h 2 v 1 h 2 v 1 h 1 v 1 h 2 v 1 h 2 v 1 h 2 v 1 h 1 v 1 h 2 v 1 h 2 v 1 h 1 v 1 h 2 v 1 h 2 v 1 h 2 v 1 h 1 v 1 h 2 v 1 h 2 v 1 h 2 v 1 h 1 v 1 h 2 v 1 h 2 v 1 h 2 v 1 h 1 v 1 h 2 v 1 h 2 v 1 h 1 v 1 h 2 v 1 h 2 v 1 h 2 v 1 h 1 v 1 h 2 v 1 h 2 v 1 h 2 v 1 h 1 v 1 h 2 v 1 h 2 v 1 h 2 v 1 h 1 v 1 h 2 v 1 h 2 v 1 h 1 v 1 h 2 v 1 h 2 v 1 h 2 v 1 h 1 v 1 h 2 v 1 h 2 v 1 h 2 v 1 h 1 v 1 h 2 v 1 h 2 v 1 h 1 v 1 h 2 v 1 h 2 v 1 h 2 v 1 h 1 v 1 h 2 v 1 h 2 v 1 h 2 v 1 h 1 v 1 h 2 v 1 h 2 v 1 h 2 v 1 h 1 v 1 h 2 v 1 h 2 v 1 h 1 v 1 h 2 v 1 h 2 v 1 h 2 v 1 h 1 v 1 h 2 v 1 h 2 v 1 h 2 v 1 h 1 v 1 h 2 v 1 h 2 v 1 h 2 v 1 h 1 v 1 h 2 v 1 h 2 v 1 h 1 v 1 h 2 v 1 h 2 v 1 h 2 v 1 h 1 v 1 h 2 v 1 h 2 v 1 h 2 v 1 h 1 v 1 h 2 v 1 h 2 v 1 h 1 v 1 h 2 v 1 h 2 v 1 h 2 v 1 h 1 v 1 h 2 v 1 h 2 v 1 h -1 v 1 h -2 v 1 h -2 v 1 h -1 v 1 h -2 v 1 h -2 v 1 h -2 v 1 h -1 v 1 h -2 v 1 h -2 v 1 h -1 v 1 h -2 v 1 h -2 v 1 h -2 v 1 h -1 v 1 h -2 v 1 h -2 v 1 h -2 v 1 h -1 v 1 h -2 v 1 h -2 v 1 h -1 v 1 h -2 v 1 h -2 v 1 h -2 v 1 h -1 v 1 h -2 v 1 h -2 v 1 h -2 v 1 h -1 v 1 h -2 v 1 h -2 v 1 h -2 v 1 h -1 v 1 h -2 v 1 h -2 v 1 h -1 v 1 h -2 v 1 h -2 v 1 h -2 v 1 h -1 v 1 h -2 v 1 h -2 v 1 h -2 v 1 h -1 v 1 h -2 v 1 h -2 v 1 h -2 v 1 h -1 v 1 h -2 v 1 h -2 v 1 h -1 v 1 h -2 v 1 h -2 v 1 h -2 v 1 h -1 v 1 h -2 v 1 h -2 v 1 h -2 v 1 h -1 v 1 h -2 v 1 h -2 v 1 h -2 v 1 h -1 v 1 h -2 v 1 h -2 v 1 h -1 v 1 h -2 v 1 h -2 v 1 h -2 v 1 h -1 v 1 h -2 v 1 h -2 v 1 h -2 v 1 h -1 v 1 h -2 v 1 h -2 v 1 h -1 v 1 h -2 v 1 h -2 v 1 h -2 v 1 h -1 v 1 h -2 v 1 h -2 v 1 h -2 v 1 h -1 v 1 h -2 v 1 h -2 v 1 h -2 v 1 h -1 v 1 h -2 v 1 h -2 v 1 h -1 v 1 h -2 v 1 h -2 v 1 h -2 v 1 h -1 v 1 h -2 v 1 h -2 v 1 h -2 v 1 h -1 v 1 h -2 v 1 h -2 v 1 h -2 v 1 h -1 v 1 h -2 v 1 h -2 v 1 h -1 v 1 h -2 v 1 h -2 v 1 h -2 v 1 h -1 v 1 h -2 v 1 h -2 v 1 h -2 v 1 h -1 v 1 h -2 v 1 h -2 v 1 h -2 v 1 h -1 v 1 h -2 v 1 h -2 v 1 h -1 v 1 h -2 v 1 h -2 v 1 h -2 v 1 h -1 v 1 h -2 v 1 h -2 v 1 h -2 v 1 h -1 v 1 h -2 v 1 h -2 v 1 h -1 v 1 h -2 v 1 h -2 v 1 h -2 v 1 h -1 v 1 h -2 v 1 h -2 v 1 h -2 v 1 h -1 v 1 h -2 v 1 h -2 v 1 h -2 v 1 h -1 v 1 h -2 v 1 h -2 v 1 h -1 v 1 h -2 v 1 h -2 v 1 h -2 v 1 h -1 v 1 h -2 v 1 h -2 v 1 h -2 v 1 h -1 v 1 h -2 v 1 h -2 v -316"
               style="fill:url(#linearGradient62);fill-opacity:1;fill-rule:nonzero;stroke:none"
               id="path64" /></g></g></g><path
         d="m 297.289,857.91 c 0,3.199 2.559,6.07 6.078,6.07 h 12.481 c 3.199,0 6.082,-2.871 6.082,-6.07 V 661.449 h 92.152 c 3.52,0 6.078,-2.89 6.078,-6.078 v -9.289 c 0,-3.191 -2.558,-6.082 -6.078,-6.082 H 303.367 c -3.519,0 -6.078,2.891 -6.078,6.082 V 857.91"
         style="fill:#717578;fill-opacity:1;fill-rule:nonzero;stroke:none"
         id="path66" /><path
         d="m 565.766,659.199 c 50.875,0 92.793,41.602 92.793,92.481 0,50.879 -41.918,93.109 -92.793,93.109 -50.879,0 -92.477,-42.23 -92.477,-93.109 0,-50.879 41.598,-92.481 92.477,-92.481 z m 0,207.992 c 63.996,0 115.191,-51.519 115.191,-115.511 0,-64 -51.195,-114.871 -115.191,-114.871 -63.993,0 -114.871,50.871 -114.871,114.871 0,63.992 50.878,115.511 114.871,115.511"
         style="fill:#717578;fill-opacity:1;fill-rule:nonzero;stroke:none"
         id="path68" /><path
         d="m 745.934,861.43 c 0,3.199 2.879,5.761 6.078,5.761 h 8.004 L 904.32,687.359 c 0.325,0 0.325,0 0.641,0 V 857.91 c 0,3.199 2.559,6.07 6.078,6.07 h 11.203 c 3.196,0 6.078,-2.871 6.078,-6.07 V 642.559 c 0,-3.188 -2.882,-5.75 -6.078,-5.75 H 916.48 L 769.609,820.16 h -0.316 V 646.082 c 0,-3.191 -2.559,-6.082 -6.082,-6.082 h -11.199 c -3.199,0 -6.078,2.891 -6.078,6.082 V 861.43"
         style="fill:#717578;fill-opacity:1;fill-rule:nonzero;stroke:none"
         id="path70" /><path
         d="m 1065.92,662.09 c 52.48,0 90.55,37.43 90.55,90.219 0,52.48 -38.07,89.921 -90.55,89.921 h -47.99 V 662.09 Z m -72.311,195.82 c 0,3.199 2.559,6.07 5.762,6.07 h 71.669 c 61.75,0 112.31,-50.23 112.31,-111.671 C 1183.35,690.23 1132.79,640 1071.04,640 h -71.669 c -3.203,0 -5.762,2.891 -5.762,6.082 V 857.91"
         style="fill:#717578;fill-opacity:1;fill-rule:nonzero;stroke:none"
         id="path72" /><path
         d="m 1347.2,659.199 c 50.87,0 92.79,41.602 92.79,92.481 0,50.879 -41.92,93.109 -92.79,93.109 -50.88,0 -92.48,-42.23 -92.48,-93.109 0,-50.879 41.6,-92.481 92.48,-92.481 z m 0,207.992 c 63.99,0 115.18,-51.519 115.18,-115.511 0,-64 -51.19,-114.871 -115.18,-114.871 -64,0 -114.88,50.871 -114.88,114.871 0,63.992 50.88,115.511 114.88,115.511"
         style="fill:#717578;fill-opacity:1;fill-rule:nonzero;stroke:none"
         id="path74" /><path
         d="m 1511.36,861.43 c 0,3.199 2.88,5.761 6.08,5.761 h 8 l 144.31,-179.832 c 0.32,0 0.32,0 0.64,0 V 857.91 c 0,3.199 2.56,6.07 6.07,6.07 h 11.21 c 3.2,0 6.08,-2.871 6.08,-6.07 V 642.559 c 0,-3.188 -2.88,-5.75 -6.08,-5.75 h -5.77 L 1535.04,820.16 h -0.32 V 646.082 c 0,-3.191 -2.56,-6.082 -6.08,-6.082 h -11.2 c -3.2,0 -6.08,2.891 -6.08,6.082 V 861.43"
         style="fill:#717578;fill-opacity:1;fill-rule:nonzero;stroke:none"
         id="path76" /><path
         d="m 1.77734,353.602 c 1.60157,1.929 3.20313,4.16 4.80079,6.089 3.20312,4.161 6.71877,6.719 11.19917,2.868 2.2422,-1.918 25.5977,-24.321 54.0782,-24.321 25.9179,0 42.8745,16.321 42.8745,35.203 0,22.079 -19.1987,35.188 -55.9956,50.559 -35.1992,15.359 -56.31643,29.75 -56.31643,66.23 0,21.758 17.27733,56.961 68.15623,56.961 31.3598,0 54.7148,-16.32 54.7148,-16.32 1.922,-0.973 5.762,-4.801 1.922,-10.883 -1.285,-1.918 -2.563,-4.156 -3.844,-6.078 -2.879,-4.48 -6.078,-5.769 -11.195,-2.871 -2.242,1.262 -22.4025,14.711 -41.9181,14.711 -33.918,0 -44.1562,-21.77 -44.1562,-35.199 0,-21.43 16.3203,-33.91 43.1953,-45.121 43.195,-17.598 71.035,-33.91 71.035,-71.039 0,-33.27 -31.676,-57.582 -69.1132,-57.582 -37.7578,0 -63.35933,22.082 -67.51949,25.91 -2.55859,2.242 -5.75781,4.801 -1.91797,10.883"
         style="fill:#717578;fill-opacity:1;fill-rule:nonzero;stroke:none"
         id="path78" /><path
         d="m 234.414,522.551 h -55.68 c -3.519,0 -6.078,2.879 -6.078,6.078 v 9.281 c 0,3.199 2.559,6.07 6.078,6.07 H 314.41 c 3.516,0 6.078,-2.871 6.078,-6.07 v -9.281 c 0,-3.199 -2.562,-6.078 -6.078,-6.078 H 258.73 V 326.082 c 0,-3.191 -2.882,-6.082 -6.078,-6.082 h -12.16 c -3.199,0 -6.078,2.891 -6.078,6.082 v 196.469"
         style="fill:#717578;fill-opacity:1;fill-rule:nonzero;stroke:none"
         id="path80" /><path
         d="m 459.047,428.801 c 24.641,0 46.078,20.48 46.078,46.711 0,24.32 -21.437,45.109 -46.078,45.109 h -62.074 v -91.82 z M 371.695,537.91 c 0,3.199 2.559,6.07 6.078,6.07 h 82.875 c 38.399,0 69.758,-30.07 69.758,-68.14 0,-29.442 -19.523,-54.078 -47.359,-65.281 l 43.836,-81.278 c 2.242,-4.16 0,-9.281 -5.438,-9.281 h -16.32 c -2.879,0 -4.48,1.602 -5.121,2.891 l -42.555,84.789 h -61.117 v -81.598 c 0,-3.191 -2.879,-6.082 -6.078,-6.082 h -12.481 c -3.519,0 -6.078,2.891 -6.078,6.082 V 537.91"
         style="fill:#717578;fill-opacity:1;fill-rule:nonzero;stroke:none"
         id="path82" /><path
         d="m 580.332,537.91 c 0,3.199 2.879,6.07 6.082,6.07 h 12.16 c 3.52,0 6.078,-2.871 6.078,-6.07 V 404.469 c 0,-36.457 22.719,-64.949 60.157,-64.949 37.754,0 60.796,27.839 60.796,64.32 v 134.07 c 0,3.199 2.559,6.07 6.079,6.07 h 12.16 c 3.195,0 6.078,-2.871 6.078,-6.07 V 402.559 c 0,-48.629 -34.555,-85.75 -85.113,-85.75 -50.239,0 -84.477,37.121 -84.477,85.75 V 537.91"
         style="fill:#717578;fill-opacity:1;fill-rule:nonzero;stroke:none"
         id="path84" /><path
         d="m 911.523,547.191 c 32.321,0 55.672,-11.191 77.43,-29.761 2.567,-2.559 2.883,-6.391 0.324,-8.95 l -8.636,-8.648 c -2.567,-3.203 -5.125,-2.883 -8.321,0.328 -16.64,14.391 -39.363,23.988 -61.121,23.988 -50.554,0 -89.269,-42.558 -89.269,-92.16 0,-49.277 38.715,-91.828 89.269,-91.828 27.844,0 44.16,11.211 61.121,24 3.196,2.559 5.754,2.25 7.68,0.961 l 9.598,-8.641 c 2.558,-1.921 1.922,-6.398 -0.321,-8.64 C 967.52,326.719 940,316.809 911.523,316.809 c -63.996,0 -115.511,50.871 -115.511,114.871 0,63.992 51.515,115.511 115.511,115.511"
         style="fill:#717578;fill-opacity:1;fill-rule:nonzero;stroke:none"
         id="path86" /><path
         d="m 1086.24,522.551 h -55.68 c -3.52,0 -6.08,2.879 -6.08,6.078 v 9.281 c 0,3.199 2.56,6.07 6.08,6.07 h 135.67 c 3.52,0 6.08,-2.871 6.08,-6.07 v -9.281 c 0,-3.199 -2.56,-6.078 -6.08,-6.078 h -55.67 V 326.082 c 0,-3.191 -2.88,-6.082 -6.09,-6.082 h -12.16 c -3.19,0 -6.07,2.891 -6.07,6.082 v 196.469"
         style="fill:#717578;fill-opacity:1;fill-rule:nonzero;stroke:none"
         id="path88" /><path
         d="m 1220.63,537.91 c 0,3.199 2.89,6.07 6.09,6.07 h 12.16 c 3.52,0 6.08,-2.871 6.08,-6.07 V 404.469 c 0,-36.457 22.72,-64.949 60.16,-64.949 37.75,0 60.79,27.839 60.79,64.32 v 134.07 c 0,3.199 2.56,6.07 6.08,6.07 h 12.16 c 3.19,0 6.07,-2.871 6.07,-6.07 V 402.559 c 0,-48.629 -34.55,-85.75 -85.1,-85.75 -50.25,0 -84.49,37.121 -84.49,85.75 V 537.91"
         style="fill:#717578;fill-opacity:1;fill-rule:nonzero;stroke:none"
         id="path90" /><path
         d="m 1539.99,428.801 c 24.64,0 46.07,20.48 46.07,46.711 0,24.32 -21.43,45.109 -46.07,45.109 h -62.08 v -91.82 z m -87.35,109.109 c 0,3.199 2.55,6.07 6.07,6.07 h 82.88 c 38.4,0 69.76,-30.07 69.76,-68.14 0,-29.442 -19.52,-54.078 -47.37,-65.281 l 43.84,-81.278 c 2.25,-4.16 0,-9.281 -5.44,-9.281 h -16.32 c -2.88,0 -4.48,1.602 -5.11,2.891 l -42.56,84.789 h -61.12 v -81.598 c 0,-3.191 -2.88,-6.082 -6.08,-6.082 h -12.48 c -3.52,0 -6.07,2.891 -6.07,6.082 V 537.91"
         style="fill:#717578;fill-opacity:1;fill-rule:nonzero;stroke:none"
         id="path92" /><path
         d="m 1664.15,537.91 c 0,3.199 2.56,6.07 6.08,6.07 h 126.08 c 3.51,0 6.07,-2.871 6.07,-6.07 v -9.281 c 0,-3.199 -2.56,-6.078 -6.07,-6.078 h -107.52 v -78.082 h 91.83 c 3.21,0 6.09,-2.867 6.09,-6.071 v -9.277 c 0,-3.519 -2.88,-6.082 -6.09,-6.082 h -91.83 v -81.59 h 107.52 c 3.51,0 6.07,-2.89 6.07,-6.078 v -9.289 c 0,-3.191 -2.56,-6.082 -6.07,-6.082 h -126.08 c -3.52,0 -6.08,2.891 -6.08,6.082 V 537.91"
         style="fill:#717578;fill-opacity:1;fill-rule:nonzero;stroke:none"
         id="path94" /><path
         d="m 1855.2,353.602 c 1.6,1.929 3.2,4.16 4.8,6.089 3.2,4.161 6.72,6.719 11.2,2.868 2.24,-1.918 25.6,-24.321 54.07,-24.321 25.92,0 42.88,16.321 42.88,35.203 0,22.079 -19.2,35.188 -55.99,50.559 -35.2,15.359 -56.32,29.75 -56.32,66.23 0,21.758 17.28,56.961 68.15,56.961 31.36,0 54.72,-16.32 54.72,-16.32 1.92,-0.973 5.76,-4.801 1.92,-10.883 -1.27,-1.918 -2.55,-4.156 -3.83,-6.078 -2.88,-4.48 -6.09,-5.769 -11.2,-2.871 -2.25,1.262 -22.41,14.711 -41.93,14.711 -33.91,0 -44.15,-21.77 -44.15,-35.199 0,-21.43 16.32,-33.91 43.19,-45.121 43.21,-17.598 71.04,-33.91 71.04,-71.039 0,-33.27 -31.68,-57.582 -69.11,-57.582 -37.77,0 -63.36,22.082 -67.52,25.91 -2.56,2.242 -5.76,4.801 -1.92,10.883"
         style="fill:#717578;fill-opacity:1;fill-rule:nonzero;stroke:none"
         id="path96" /><path
         d="m 730.566,217.91 c 0,3.199 2.559,6.07 6.079,6.07 h 12.48 c 3.199,0 6.078,-2.871 6.078,-6.07 V 21.4492 h 92.156 c 3.52,0 6.079,-2.8906 6.079,-6.0781 V 6.08203 C 853.438,2.89063 850.879,0 847.359,0 H 736.645 c -3.52,0 -6.079,2.89063 -6.079,6.08203 V 217.91"
         style="fill:#717578;fill-opacity:1;fill-rule:nonzero;stroke:none"
         id="path98" /><path
         d="M 1034.88,76.1484 C 1019.2,111.039 1003.84,146.23 988.16,181.109 h -2.558 L 938.883,76.1484 Z M 882.887,8.32031 980.16,223.672 c 0.957,1.918 2.559,3.519 5.442,3.519 h 3.195 c 2.883,0 4.48,-1.601 5.441,-3.519 L 1090.87,8.32031 C 1092.79,4.16016 1090.22,0 1085.43,0 h -12.8 c -2.88,0 -4.8,1.92188 -5.44,3.53125 L 1043.52,56.332 H 929.922 L 906.563,3.53125 C 905.922,1.92188 904.004,0 901.121,0 h -12.797 c -4.801,0 -7.359,4.16016 -5.437,8.32031"
         style="fill:#717578;fill-opacity:1;fill-rule:nonzero;stroke:none"
         id="path100" /><path
         d="m 1201.91,123.52 c 24.64,0 38.4,17.589 38.4,40 0,23.031 -13.76,38.39 -38.4,38.39 h -52.15 v -78.39 z m 5.44,-102.0708 c 23.36,0 40.33,17.5899 40.33,40.6328 0,22.7188 -20.81,39.359 -45.77,39.359 h -52.79 V 21.4492 Z M 1125.76,217.91 c 0,3.199 2.56,6.07 6.08,6.07 h 70.07 c 39.04,0 65.6,-25.269 65.6,-58.859 0,-24.652 -16.32,-42.562 -31.36,-51.199 16.96,-7.051 38.4,-22.7306 38.4,-52.1603 C 1274.55,25.9219 1246.07,0 1204.79,0 h -72.95 c -3.52,0 -6.08,2.89063 -6.08,6.08203 V 217.91"
         style="fill:#717578;fill-opacity:1;fill-rule:nonzero;stroke:none"
         id="path102" /></g></g></svg>
